<svg width="" height="" viewBox="0 0 40 40" fill="none" xmlns="http://www.w3.org/2000/svg">
<path fill-rule="evenodd" clip-rule="evenodd" d="M26 16C26 19.3137 23.3137 22 20 22C16.6863 22 14 19.3137 14 16C14 12.6863 16.6863 10 20 10C23.3137 10 26 12.6863 26 16ZM24 16C24 18.2091 22.2091 20 20 20C17.7909 20 16 18.2091 16 16C16 13.7909 17.7909 12 20 12C22.2091 12 24 13.7909 24 16Z" fill="#5B994C"/>
<path d="M20 25C13.5256 25 8.00927 28.8284 5.90796 34.192C6.41985 34.7004 6.9591 35.1812 7.52329 35.6321C9.08803 30.7077 13.9967 27 20 27C26.0033 27 30.912 30.7077 32.4767 35.6321C33.0409 35.1812 33.5802 34.7004 34.0921 34.1921C31.9907 28.8284 26.4744 25 20 25Z" fill="#5B994C"/>
<rect x="1" y="1" width="38" height="38" rx="19" stroke="#5B994C" stroke-width="2"/>
</svg>
