<svg width="" height="" viewBox="0 0 250 296" fill="none" xmlns="http://www.w3.org/2000/svg">
<path d="M236.022 29.5437C213.427 12.8758 186.546 2.99992 158.534 1.07551C130.523 -0.848892 102.543 5.25807 77.8813 18.6794C53.2192 32.1008 32.8979 52.2795 19.3032 76.8464C5.70854 101.413 -0.595291 129.349 1.13182 157.373C2.85894 185.398 12.5453 212.348 29.0537 235.06C45.5621 257.771 68.2074 275.302 94.3309 285.594C120.454 295.885 148.972 298.51 176.535 293.161C204.098 287.811 229.563 274.709 249.941 255.393L210.432 213.715C197.985 225.514 182.43 233.517 165.594 236.785C148.757 240.052 131.338 238.449 115.38 232.162C99.4234 225.876 85.5908 215.167 75.5069 201.294C65.423 187.421 59.5062 170.959 58.4512 153.841C57.3963 136.723 61.2469 119.659 69.551 104.652C77.8551 89.6458 90.268 77.32 105.332 69.1217C120.397 60.9235 137.488 57.1931 154.598 58.3686C171.709 59.5441 188.129 65.5767 201.93 75.758L236.022 29.5437Z" fill="#C0EC79"/>
</svg>
