<svg width="" height="" viewBox="0 0 240 239" fill="none" xmlns="http://www.w3.org/2000/svg">
<mask id="path-1-inside-1_150_28" fill="white">
<path fill-rule="evenodd" clip-rule="evenodd" d="M120 239C186.274 239 240 185.498 240 119.5C240 53.502 186.274 0 120 0C53.7258 0 0 53.502 0 119.5C0 185.498 53.7258 239 120 239ZM120 213.734C172.302 213.734 214.701 171.544 214.701 119.5C214.701 67.4558 172.302 25.2657 120 25.2657C67.6982 25.2657 25.2991 67.4558 25.2991 119.5C25.2991 171.544 67.6982 213.734 120 213.734Z"/>
</mask>
<path fill-rule="evenodd" clip-rule="evenodd" d="M120 239C186.274 239 240 185.498 240 119.5C240 53.502 186.274 0 120 0C53.7258 0 0 53.502 0 119.5C0 185.498 53.7258 239 120 239ZM120 213.734C172.302 213.734 214.701 171.544 214.701 119.5C214.701 67.4558 172.302 25.2657 120 25.2657C67.6982 25.2657 25.2991 67.4558 25.2991 119.5C25.2991 171.544 67.6982 213.734 120 213.734Z" fill="white"/>
<path d="M120 277C207.111 277 278 206.634 278 119.5H202C202 164.362 165.437 201 120 201V277ZM278 119.5C278 32.3657 207.111 -38 120 -38V38C165.437 38 202 74.6382 202 119.5H278ZM120 -38C32.8888 -38 -38 32.3657 -38 119.5H38C38 74.6382 74.5629 38 120 38V-38ZM-38 119.5C-38 206.634 32.8888 277 120 277V201C74.5629 201 38 164.362 38 119.5H-38ZM120 251.734C193.111 251.734 252.701 192.708 252.701 119.5H176.701C176.701 150.381 151.492 175.734 120 175.734V251.734ZM252.701 119.5C252.701 46.2923 193.111 -12.7343 120 -12.7343V63.2657C151.492 63.2657 176.701 88.6194 176.701 119.5H252.701ZM120 -12.7343C46.8885 -12.7343 -12.7009 46.2923 -12.7009 119.5H63.2991C63.2991 88.6194 88.5078 63.2657 120 63.2657V-12.7343ZM-12.7009 119.5C-12.7009 192.708 46.8885 251.734 120 251.734V175.734C88.5078 175.734 63.2991 150.381 63.2991 119.5H-12.7009Z" fill="#FFEE40" mask="url(#path-1-inside-1_150_28)"/>
</svg>
