<svg width="" height="" viewBox="0 0 402 400" fill="none" xmlns="http://www.w3.org/2000/svg">
<path fill-rule="evenodd" clip-rule="evenodd" d="M201 400C312.009 400 402 310.457 402 200C402 89.5431 312.009 0 201 0C89.9908 0 0 89.5431 0 200C0 310.457 89.9908 400 201 400ZM201 357.714C288.606 357.714 359.624 287.103 359.624 200C359.624 112.897 288.606 42.2857 201 42.2857C113.394 42.2857 42.3761 112.897 42.3761 200C42.3761 287.103 113.394 357.714 201 357.714Z" fill="white"/>
<path d="M383 200C383 299.874 301.605 381 201 381C100.395 381 19 299.874 19 200C19 100.126 100.395 19 201 19C301.605 19 383 100.126 383 200ZM201 376.714C298.996 376.714 378.624 297.699 378.624 200C378.624 102.301 298.996 23.2857 201 23.2857C103.004 23.2857 23.3761 102.301 23.3761 200C23.3761 297.699 103.004 376.714 201 376.714Z" stroke="#B4E47C" stroke-opacity="0.45" stroke-width="38"/>
</svg>
