<svg width="" height="" viewBox="0 0 55 55" fill="none" xmlns="http://www.w3.org/2000/svg">
<mask id="path-1-inside-1_32_6390" fill="white">
<path fill-rule="evenodd" clip-rule="evenodd" d="M27.5 55C42.6878 55 55 42.6878 55 27.5C55 12.3122 42.6878 0 27.5 0C12.3122 0 0 12.3122 0 27.5C0 42.6878 12.3122 55 27.5 55ZM27.5 47C38.2696 47 47 38.2696 47 27.5C47 16.7304 38.2696 8 27.5 8C16.7304 8 8 16.7304 8 27.5C8 38.2696 16.7304 47 27.5 47Z"/>
</mask>
<path fill-rule="evenodd" clip-rule="evenodd" d="M27.5 55C42.6878 55 55 42.6878 55 27.5C55 12.3122 42.6878 0 27.5 0C12.3122 0 0 12.3122 0 27.5C0 42.6878 12.3122 55 27.5 55ZM27.5 47C38.2696 47 47 38.2696 47 27.5C47 16.7304 38.2696 8 27.5 8C16.7304 8 8 16.7304 8 27.5C8 38.2696 16.7304 47 27.5 47Z" fill="white"/>
<path d="M47 27.5C47 38.2696 38.2696 47 27.5 47V63C47.1061 63 63 47.1061 63 27.5H47ZM27.5 8C38.2696 8 47 16.7304 47 27.5H63C63 7.89389 47.1061 -8 27.5 -8V8ZM8 27.5C8 16.7304 16.7304 8 27.5 8V-8C7.89389 -8 -8 7.89389 -8 27.5H8ZM27.5 47C16.7304 47 8 38.2696 8 27.5H-8C-8 47.1061 7.89389 63 27.5 63V47ZM39 27.5C39 33.8513 33.8513 39 27.5 39V55C42.6878 55 55 42.6878 55 27.5H39ZM27.5 16C33.8513 16 39 21.1487 39 27.5H55C55 12.3122 42.6878 0 27.5 0V16ZM16 27.5C16 21.1487 21.1487 16 27.5 16V0C12.3122 0 0 12.3122 0 27.5H16ZM27.5 39C21.1487 39 16 33.8513 16 27.5H0C0 42.6878 12.3122 55 27.5 55V39Z" fill="#FFEE40" mask="url(#path-1-inside-1_32_6390)"/>
</svg>
