<svg width="" height="" viewBox="0 0 507 506" fill="none" xmlns="http://www.w3.org/2000/svg">
<g opacity="0.88">
<mask id="path-1-inside-1_39_159" fill="white">
<path fill-rule="evenodd" clip-rule="evenodd" d="M253.5 506C393.504 506 507 392.728 507 253C507 113.272 393.504 0 253.5 0C113.496 0 0 113.272 0 253C0 392.728 113.496 506 253.5 506ZM253.5 422C347.112 422 423 346.336 423 253C423 159.664 347.112 84 253.5 84C159.888 84 84 159.664 84 253C84 346.336 159.888 422 253.5 422Z"/>
</mask>
<path fill-rule="evenodd" clip-rule="evenodd" d="M253.5 506C393.504 506 507 392.728 507 253C507 113.272 393.504 0 253.5 0C113.496 0 0 113.272 0 253C0 392.728 113.496 506 253.5 506ZM253.5 422C347.112 422 423 346.336 423 253C423 159.664 347.112 84 253.5 84C159.888 84 84 159.664 84 253C84 346.336 159.888 422 253.5 422Z" fill="white"/>
<path d="M421 253C421 345.072 346.168 420 253.5 420V592C440.841 592 593 440.385 593 253H421ZM253.5 86C346.168 86 421 160.928 421 253H593C593 65.6155 440.841 -86 253.5 -86V86ZM86 253C86 160.928 160.832 86 253.5 86V-86C66.1595 -86 -86 65.6155 -86 253H86ZM253.5 420C160.832 420 86 345.072 86 253H-86C-86 440.385 66.1595 592 253.5 592V420ZM337 253C337 298.6 299.855 336 253.5 336V508C394.369 508 509 394.072 509 253H337ZM253.5 170C299.855 170 337 207.4 337 253H509C509 111.928 394.369 -2 253.5 -2V170ZM170 253C170 207.4 207.145 170 253.5 170V-2C112.631 -2 -2 111.928 -2 253H170ZM253.5 336C207.145 336 170 298.6 170 253H-2C-2 394.072 112.631 508 253.5 508V336Z" fill="#DCF68F" mask="url(#path-1-inside-1_39_159)"/>
</g>
</svg>
