<svg width="" height="" viewBox="0 0 297 297" fill="none" xmlns="http://www.w3.org/2000/svg">
<mask id="path-1-inside-1_497_17" fill="white">
<path fill-rule="evenodd" clip-rule="evenodd" d="M273.296 228.63C317.73 159.592 297.877 67.7503 228.954 23.4958C160.031 -20.7586 68.1376 -0.667688 23.7039 68.3702C-20.7297 137.408 -0.877145 229.25 68.0458 273.504C136.969 317.759 228.862 297.668 273.296 228.63ZM247.624 212.146C282.943 157.27 267.195 84.2884 212.451 49.1377C157.706 13.987 84.6953 29.9778 49.3763 84.854C14.0572 139.73 29.8047 212.712 84.5492 247.862C139.294 283.013 212.305 267.022 247.624 212.146Z"/>
</mask>
<path fill-rule="evenodd" clip-rule="evenodd" d="M273.296 228.63C317.73 159.592 297.877 67.7503 228.954 23.4958C160.031 -20.7586 68.1376 -0.667688 23.7039 68.3702C-20.7297 137.408 -0.877145 229.25 68.0458 273.504C136.969 317.759 228.862 297.668 273.296 228.63ZM247.624 212.146C282.943 157.27 267.195 84.2884 212.451 49.1377C157.706 13.987 84.6953 29.9778 49.3763 84.854C14.0572 139.73 29.8047 212.712 84.5492 247.862C139.294 283.013 212.305 267.022 247.624 212.146Z" fill="white"/>
<path d="M273.296 228.63L241.342 208.064L273.296 228.63ZM228.954 23.4958L208.423 55.4718L228.954 23.4958ZM23.7039 68.3702L-8.24987 47.8043H-8.24987L23.7039 68.3702ZM68.0458 273.504L47.5145 305.48L68.0458 273.504ZM247.624 212.146L215.67 191.58L247.624 212.146ZM49.3763 84.854L17.4225 64.2882L49.3763 84.854ZM305.25 249.196C361.004 162.568 336.153 47.1679 249.486 -8.48016L208.423 55.4718C259.601 88.3328 274.455 156.616 241.342 208.064L305.25 249.196ZM249.486 -8.48016C162.845 -64.1107 47.4876 -38.7966 -8.24987 47.8043L55.6577 88.9361C88.7875 37.4613 157.217 22.5934 208.423 55.4718L249.486 -8.48016ZM-8.24987 47.8043C-64.0045 134.432 -39.153 249.832 47.5145 305.48L88.5772 241.528C37.3988 208.667 22.5451 140.384 55.6577 88.9361L-8.24987 47.8043ZM47.5145 305.48C134.155 361.111 249.512 335.797 305.25 249.196L241.342 208.064C208.212 259.539 139.783 274.407 88.5772 241.528L47.5145 305.48ZM279.578 232.712C326.203 160.268 305.493 63.7202 232.982 17.1617L191.919 81.1137C228.897 104.857 239.682 154.271 215.67 191.58L279.578 232.712ZM232.982 17.1617C160.498 -29.3793 64.031 -8.12895 17.4225 64.2882L81.3301 105.42C105.36 68.0845 154.914 57.3533 191.919 81.1137L232.982 17.1617ZM17.4225 64.2882C-29.2032 136.732 -8.49343 233.28 64.0179 279.838L105.081 215.886C68.1029 192.143 57.3177 142.729 81.3301 105.42L17.4225 64.2882ZM64.0179 279.838C136.502 326.379 232.969 305.129 279.578 232.712L215.67 191.58C191.64 228.915 142.086 239.647 105.081 215.886L64.0179 279.838Z" fill="#FFB157" fill-opacity="0.7" mask="url(#path-1-inside-1_497_17)"/>
</svg>
