<svg width="" height="" viewBox="0 0 351 350" fill="none" xmlns="http://www.w3.org/2000/svg">
<mask id="path-1-inside-1_148_18" fill="white">
<path fill-rule="evenodd" clip-rule="evenodd" d="M175.5 350C272.426 350 351 271.65 351 175C351 78.3502 272.426 0 175.5 0C78.574 0 0 78.3502 0 175C0 271.65 78.574 350 175.5 350ZM175.5 314C252.544 314 315 251.768 315 175C315 98.2324 252.544 36 175.5 36C98.4563 36 36 98.2324 36 175C36 251.768 98.4563 314 175.5 314Z"/>
</mask>
<path fill-rule="evenodd" clip-rule="evenodd" d="M175.5 350C272.426 350 351 271.65 351 175C351 78.3502 272.426 0 175.5 0C78.574 0 0 78.3502 0 175C0 271.65 78.574 350 175.5 350ZM175.5 314C252.544 314 315 251.768 315 175C315 98.2324 252.544 36 175.5 36C98.4563 36 36 98.2324 36 175C36 251.768 98.4563 314 175.5 314Z" fill="white"/>
<path d="M175.5 388C293.31 388 389 292.739 389 175H313C313 250.561 251.541 312 175.5 312V388ZM389 175C389 57.2612 293.31 -38 175.5 -38V38C251.541 38 313 99.4391 313 175H389ZM175.5 -38C57.6895 -38 -38 57.2612 -38 175H38C38 99.4391 99.4586 38 175.5 38V-38ZM-38 175C-38 292.739 57.6895 388 175.5 388V312C99.4586 312 38 250.561 38 175H-38ZM175.5 352C273.402 352 353 272.883 353 175H277C277 230.652 231.686 276 175.5 276V352ZM353 175C353 77.1171 273.402 -2 175.5 -2V74C231.686 74 277 119.348 277 175H353ZM175.5 -2C77.5982 -2 -2 77.1171 -2 175H74C74 119.348 119.314 74 175.5 74V-2ZM-2 175C-2 272.883 77.5982 352 175.5 352V276C119.314 276 74 230.652 74 175H-2Z" fill="#FFB157" mask="url(#path-1-inside-1_148_18)"/>
</svg>
