<svg width="" height="" viewBox="0 0 351 350" fill="none" xmlns="http://www.w3.org/2000/svg">
<mask id="path-1-inside-1_148_19" fill="white">
<path fill-rule="evenodd" clip-rule="evenodd" d="M175.5 350C272.426 350 351 271.65 351 175C351 78.3502 272.426 0 175.5 0C78.574 0 0 78.3502 0 175C0 271.65 78.574 350 175.5 350ZM175.5 313C251.991 313 314 251.215 314 175C314 98.7847 251.991 37 175.5 37C99.0086 37 37 98.7847 37 175C37 251.215 99.0086 313 175.5 313Z"/>
</mask>
<path fill-rule="evenodd" clip-rule="evenodd" d="M175.5 350C272.426 350 351 271.65 351 175C351 78.3502 272.426 0 175.5 0C78.574 0 0 78.3502 0 175C0 271.65 78.574 350 175.5 350ZM175.5 313C251.991 313 314 251.215 314 175C314 98.7847 251.991 37 175.5 37C99.0086 37 37 98.7847 37 175C37 251.215 99.0086 313 175.5 313Z" fill="white"/>
<path d="M175.5 388C293.31 388 389 292.739 389 175H313C313 250.561 251.541 312 175.5 312V388ZM389 175C389 57.2612 293.31 -38 175.5 -38V38C251.541 38 313 99.4391 313 175H389ZM175.5 -38C57.6895 -38 -38 57.2612 -38 175H38C38 99.4391 99.4586 38 175.5 38V-38ZM-38 175C-38 292.739 57.6895 388 175.5 388V312C99.4586 312 38 250.561 38 175H-38ZM175.5 351C272.849 351 352 272.332 352 175H276C276 230.099 231.134 275 175.5 275V351ZM352 175C352 77.6684 272.849 -1 175.5 -1V75C231.134 75 276 119.901 276 175H352ZM175.5 -1C78.1514 -1 -1 77.6684 -1 175H75C75 119.901 119.866 75 175.5 75V-1ZM-1 175C-1 272.332 78.1514 351 175.5 351V275C119.866 275 75 230.099 75 175H-1Z" fill="#FFEE40" mask="url(#path-1-inside-1_148_19)"/>
</svg>
