<svg width="" height="" viewBox="0 0 171 171" fill="none" xmlns="http://www.w3.org/2000/svg">
<path fill-rule="evenodd" clip-rule="evenodd" d="M156 85.5C156 124.436 124.436 156 85.5 156C46.5639 156 15 124.436 15 85.5C15 46.5639 46.5639 15 85.5 15C124.436 15 156 46.5639 156 85.5ZM154.037 85.5C154.037 123.352 123.352 154.037 85.5 154.037C47.648 154.037 16.9629 123.352 16.9629 85.5C16.9629 47.648 47.648 16.9629 85.5 16.9629C123.352 16.9629 154.037 47.648 154.037 85.5Z" fill="#DCF68F"/>
<path d="M85.5 163.5C128.578 163.5 163.5 128.578 163.5 85.5C163.5 42.4218 128.578 7.5 85.5 7.5C42.4218 7.5 7.5 42.4218 7.5 85.5C7.5 128.578 42.4218 163.5 85.5 163.5ZM146.537 85.5C146.537 119.21 119.21 146.537 85.5 146.537C51.7901 146.537 24.4629 119.21 24.4629 85.5C24.4629 51.7901 51.7901 24.4629 85.5 24.4629C119.21 24.4629 146.537 51.7901 146.537 85.5Z" stroke="#C0EC79" stroke-opacity="0.77" stroke-width="15"/>
</svg>
