<svg width="" height="" viewBox="0 0 541 540" fill="none" xmlns="http://www.w3.org/2000/svg">
<g opacity="0.88">
<mask id="path-1-inside-1_47_628" fill="white">
<path fill-rule="evenodd" clip-rule="evenodd" d="M270.5 540C419.893 540 541 419.117 541 270C541 120.883 419.893 0 270.5 0C121.107 0 0 120.883 0 270C0 419.117 121.107 540 270.5 540ZM270.5 456C373.501 456 457 372.725 457 270C457 167.275 373.501 84 270.5 84C167.499 84 84 167.275 84 270C84 372.725 167.499 456 270.5 456Z"/>
</mask>
<path fill-rule="evenodd" clip-rule="evenodd" d="M270.5 540C419.893 540 541 419.117 541 270C541 120.883 419.893 0 270.5 0C121.107 0 0 120.883 0 270C0 419.117 121.107 540 270.5 540ZM270.5 456C373.501 456 457 372.725 457 270C457 167.275 373.501 84 270.5 84C167.499 84 84 167.275 84 270C84 372.725 167.499 456 270.5 456Z" fill="white" fill-opacity="0.88"/>
<path d="M270.5 626C467.239 626 627 466.763 627 270H455C455 371.47 372.547 454 270.5 454V626ZM627 270C627 73.2367 467.239 -86 270.5 -86V86C372.547 86 455 168.53 455 270H627ZM270.5 -86C73.7606 -86 -86 73.2367 -86 270H86C86 168.53 168.453 86 270.5 86V-86ZM-86 270C-86 466.763 73.7606 626 270.5 626V454C168.453 454 86 371.47 86 270H-86ZM270.5 542C420.78 542 543 420.439 543 270H371C371 325.011 326.222 370 270.5 370V542ZM543 270C543 119.561 420.78 -2 270.5 -2V170C326.222 170 371 214.989 371 270H543ZM270.5 -2C120.22 -2 -2 119.561 -2 270H170C170 214.989 214.778 170 270.5 170V-2ZM-2 270C-2 420.439 120.22 542 270.5 542V370C214.778 370 170 325.011 170 270H-2Z" fill="#C0EC79" fill-opacity="0.88" mask="url(#path-1-inside-1_47_628)"/>
</g>
</svg>
