<svg width="" height="" viewBox="0 0 43 44" fill="none" xmlns="http://www.w3.org/2000/svg">
<path fill-rule="evenodd" clip-rule="evenodd" d="M0.913025 6.875C0.913025 3.07804 3.8104 0 7.38449 0H35.859C39.433 0 42.3304 3.07804 42.3304 6.875V37.125C42.3304 40.922 39.433 44 35.859 44H7.38449C3.8104 44 0.913025 40.922 0.913025 37.125V6.875ZM21.6217 11C27.3166 11 31.9761 15.95 31.9761 22C31.9761 27.5 28.2226 32.175 23.0454 33V25.1625H25.5046L26.0223 22H23.1749V19.9375C23.1749 19.1125 23.5632 18.2875 24.8575 18.2875H26.1517V15.5375C26.1517 15.5375 24.9869 15.2625 23.822 15.2625C21.4923 15.2625 19.9391 16.775 19.9391 19.525V22H17.3506V25.1625H19.9391V32.8625C15.0208 32.0375 11.2674 27.5 11.2674 22C11.2674 15.95 15.9268 11 21.6217 11Z" fill="#B2D947"/>
</svg>
