<svg width="" height="" viewBox="0 0 43 44" fill="none" xmlns="http://www.w3.org/2000/svg">
<path d="M21.5717 25.85C19.6303 25.85 17.9477 24.2 17.9477 22C17.9477 19.9375 19.5009 18.15 21.5717 18.15C23.5132 18.15 25.1958 19.8 25.1958 22C25.1958 24.0625 23.5132 25.85 21.5717 25.85Z" fill="#B2D947"/>
<path fill-rule="evenodd" clip-rule="evenodd" d="M25.9723 12.65H17.1711C16.1357 12.7875 15.618 12.925 15.2297 13.0625C14.712 13.2 14.3237 13.475 13.9354 13.8875C13.6282 14.2139 13.483 14.5403 13.3075 14.9348C13.2613 15.0388 13.2128 15.1478 13.1588 15.2625C13.1388 15.3263 13.1157 15.3934 13.0909 15.4653C12.9555 15.8583 12.7705 16.3952 12.7705 17.325V26.675C12.9 27.775 13.0294 28.325 13.1588 28.7375C13.2883 29.2875 13.5471 29.7 13.9354 30.1125C14.2427 30.4389 14.5499 30.5931 14.9213 30.7795C15.0192 30.8287 15.1216 30.8801 15.2297 30.9375C15.2898 30.9588 15.3529 30.9833 15.4206 31.0097C15.7906 31.1535 16.2959 31.35 17.1711 31.35H25.9723C27.0078 31.2125 27.5255 31.075 27.9138 30.9375C28.4315 30.8 28.8198 30.525 29.2081 30.1125C29.5153 29.7861 29.6605 29.4597 29.8359 29.0652C29.8822 28.9611 29.9306 28.8523 29.9846 28.7375C30.0047 28.6737 30.0278 28.6066 30.0526 28.5347C30.188 28.1417 30.3729 27.6048 30.3729 26.675V17.325C30.2435 16.225 30.1141 15.675 29.9846 15.2625C29.8552 14.7125 29.5964 14.3 29.2081 13.8875C28.9008 13.5611 28.5936 13.4069 28.2222 13.2205C28.1244 13.1714 28.0216 13.1198 27.9138 13.0625C27.8537 13.0412 27.7905 13.0167 27.7228 12.9903C27.3529 12.8465 26.8476 12.65 25.9723 12.65ZM21.5717 16.0875C18.4654 16.0875 16.0063 18.7 16.0063 22C16.0063 25.3 18.4654 27.9125 21.5717 27.9125C24.678 27.9125 27.1372 25.3 27.1372 22C27.1372 18.7 24.678 16.0875 21.5717 16.0875ZM28.5609 15.95C28.5609 16.7094 27.9814 17.325 27.2666 17.325C26.5518 17.325 25.9723 16.7094 25.9723 15.95C25.9723 15.1906 26.5518 14.575 27.2666 14.575C27.9814 14.575 28.5609 15.1906 28.5609 15.95Z" fill="#B2D947"/>
<path fill-rule="evenodd" clip-rule="evenodd" d="M0.863037 6.875C0.863037 3.07804 3.76041 0 7.3345 0H35.809C39.3831 0 42.2804 3.07804 42.2804 6.875V37.125C42.2804 40.922 39.3831 44 35.809 44H7.3345C3.76041 44 0.863037 40.922 0.863037 37.125V6.875ZM17.1711 10.5875H25.9723C27.1372 10.725 27.9138 10.8625 28.5609 11.1375C29.3375 11.55 29.8552 11.825 30.5024 12.5125C31.1495 13.2 31.5378 13.8875 31.7967 14.575C32.0555 15.2625 32.3144 16.0875 32.3144 17.325V26.675C32.1849 27.9125 32.0555 28.7375 31.7967 29.425C31.4084 30.25 31.1495 30.8 30.5024 31.4875C29.8552 32.175 29.2081 32.5875 28.5609 32.8625C27.9138 33.1375 27.1372 33.4125 25.9723 33.4125H17.1711C16.0063 33.275 15.2297 33.1375 14.5825 32.8625C13.806 32.45 13.2883 32.175 12.6411 31.4875C11.994 30.8 11.6057 30.1125 11.3468 29.425C11.088 28.7375 10.8291 27.9125 10.8291 26.675V17.325C10.9585 16.0875 11.088 15.2625 11.3468 14.575C11.7351 13.75 11.994 13.2 12.6411 12.5125C13.2883 11.825 13.9354 11.4125 14.5825 11.1375C15.2297 10.8625 16.0063 10.5875 17.1711 10.5875Z" fill="#B2D947"/>
</svg>
