<svg width="" height="" viewBox="0 0 401 158" fill="none" xmlns="http://www.w3.org/2000/svg">
<path d="M359.269 59.4489C356.274 61.019 354.112 62.2715 352.496 64.4631C350.4 67.3756 347.251 69.0785 344.211 70.7985C342.593 71.7105 341.477 70.9735 340.923 69.3599C340.351 67.6426 340.554 65.9016 340.861 64.1433C341.099 62.6098 341.727 61.0818 340.885 59.0189C338.524 61.6203 336.392 64.1121 333.968 66.3331C331.6 68.4735 329.215 70.51 326.577 72.3047C325.115 73.2972 323.6 73.9786 321.938 72.9423C320.196 71.8484 319.658 70.1252 319.855 68.1364C320.288 63.5478 322.152 59.4653 324.504 55.5496C324.779 55.0767 325.318 54.7016 325.248 53.8601C322.295 56.0989 319.899 58.7061 317.717 61.5265C317.276 62.0629 317.451 63.5268 316.14 62.6805C315.105 62.0011 315.488 61.1189 316.055 60.2769C317.663 57.8374 319.192 55.3403 321.577 53.517C323.183 52.3226 324.788 51.1282 326.44 49.9972C327.105 49.5298 327.914 49.0738 328.731 49.7188C329.513 50.3695 329.268 51.2286 329.052 52.0473C328.641 53.6097 328.03 55.0282 327.24 56.441C325.34 59.8894 323.481 63.3667 322.909 67.3387C322.767 68.3936 322.42 69.6966 323.42 70.3818C324.576 71.1476 325.32 69.8847 326.18 69.3133C331.399 65.8048 336.054 61.6798 340.26 56.9903C340.948 56.2347 341.532 55.4964 341.783 54.4587C343.878 45.4303 349.206 38.7744 356.788 33.7307C357.453 33.2633 358.25 32.9514 359.054 32.6742C363.22 31.1204 366.603 33.9654 365.94 38.4505C365.855 38.9982 365.454 39.5634 365.943 40.1567C367.045 39.7582 367.106 38.6456 367.57 37.821C370.242 33.0693 372.989 28.3405 377.94 25.5527C382.242 23.1227 386.008 25.2987 386.144 30.3251C386.252 35.1785 384.791 39.7621 382.491 43.9891C381.089 46.6071 379.032 48.9086 377.274 51.302C374.387 55.2008 370.383 57.5095 366.011 59.3113C365.316 59.6058 364.456 59.9638 363.846 59.4974C362.097 58.1556 361.79 59.4874 361.356 60.6982C360.219 63.8406 359.112 66.9426 357.855 70.4251C365.642 67.0183 372.87 63.0298 381.178 62.0955C378.302 62.8989 375.934 64.826 373.203 65.854C368.371 67.6619 363.833 70.167 359.117 72.2399C355.858 73.7122 355.261 77.1193 354.349 80.1174C351.775 88.4084 349.012 96.6245 347.071 105.094C345.967 109.902 344.862 114.71 342.896 119.236C342.564 120.003 342.348 120.822 341.861 121.508C340.108 123.936 339.017 123.978 336.802 121.968C334.046 119.479 332.656 116.264 332 112.783C331.076 107.711 329.722 102.605 330.832 97.4048C332.539 89.6506 338.065 84.597 343.861 79.889C346.7 77.5984 349.935 75.7745 352.952 73.7029C353.84 73.0912 354.81 72.5371 355.187 71.407C356.466 67.6363 357.744 63.8655 359.269 59.4489ZM352.963 76.7233C348.489 79.3955 344.412 82.5344 340.306 85.5003C336.705 88.0969 334.692 92.3466 333.3 96.7054C331.468 102.454 333.029 107.952 334.614 113.375C335.279 115.645 336.002 118.048 337.596 119.949C338.92 121.505 339.856 121.383 340.433 119.544C341.728 115.237 343.091 110.918 344.093 106.554C345.659 99.6417 347.563 92.85 349.91 86.1617C350.978 83.0309 352.051 79.9347 352.963 76.7233ZM345.491 50.5996C346.334 49.9246 346.649 49.6938 346.93 49.4688C347.52 48.9783 348.116 48.3092 348.887 48.8909C349.733 49.4955 349.154 50.2683 348.874 50.9199C348.623 51.5311 348.296 52.1193 347.97 52.7075C346.465 55.3429 345.489 58.1738 344.817 61.1314C344.641 61.9789 344.534 63.2413 345.728 62.7562C348.379 61.6706 351.566 61.4549 353.594 59.1938C358.78 53.3795 362.298 46.7077 363.351 38.8502C363.548 37.2879 363.356 35.9335 362.171 34.9948C360.986 34.0561 359.822 34.9274 358.715 35.5047C352.513 38.6451 348.969 44.1122 345.491 50.5996ZM365.81 56.4293C366.618 55.9733 367.014 55.8001 367.336 55.6039C367.749 55.3211 368.115 54.975 368.574 54.7556C376.991 50.4607 381.375 43.2521 383.407 34.2698C383.874 32.2001 383.6 30.3615 382.781 28.4369C382.019 26.6448 380.991 26.4265 379.442 27.3269C376.127 29.3065 373.749 32.2308 371.809 35.4372C370.698 37.2595 368.669 39.0941 370.816 41.5423C370.943 41.6632 370.863 42.0322 370.8 42.2916C370.083 45.1858 369.957 48.2294 368.015 50.796C366.95 52.2551 366.069 53.9678 365.81 56.4293Z" fill="#FD7306"/>
<path d="M308.075 67.3786C306.926 67.2873 306.502 67.9274 306.078 68.3543C301.282 73.5342 295.236 77.1817 289.818 81.6127C289.508 81.8781 289.118 82.0859 288.768 82.3225C286.663 83.7075 284.472 84.7871 282.068 83.1288C279.704 81.4993 279.745 79.0033 280.045 76.5706C280.616 72.1721 281.842 67.8768 283.528 63.7887C284.739 60.8826 285.003 57.6025 286.967 54.961C287.317 54.5111 287.579 53.7558 288.015 53.6114C291.746 52.4154 293.732 48.8458 296.955 46.9527C298.12 46.2947 299.232 45.5388 300.466 45.0825C304.041 43.8059 307.4 46.2993 307.765 50.3628C308.058 53.5848 306.835 56.4217 305.727 59.3105C304.253 63.1851 301.675 66.392 299.413 69.7946C299.018 70.3944 298.273 70.8042 298.378 71.6399C298.774 71.8933 299.067 71.7374 299.314 71.5182C304.026 67.5258 309.245 64.0172 312.41 58.6137C315.026 54.156 317.066 49.4393 319.527 44.901C322.685 39.0364 325.803 33.143 330.52 28.3321C331.093 27.7379 331.534 26.9882 332.147 26.4229C333.127 25.5114 334.308 24.5306 335.677 25.5095C337.086 26.5172 336.951 28.0333 336.179 29.3366C334.124 32.7044 332.103 36.0665 329.841 39.2558C325.346 45.5941 320.557 51.6617 315.981 57.9424C312.213 63.1273 310.106 69.3485 307.625 75.2414C303.888 84.1903 300.828 93.3808 297.803 102.566C295.029 111.139 290.974 119.252 288.763 128.016C288.632 128.5 288.466 128.99 288.295 129.446C288.072 130.016 287.694 130.507 286.987 130.305C286.137 130.093 286.015 129.367 286.26 128.721C287.517 125.452 287.648 121.803 289.203 118.625C292.263 112.386 293.771 105.554 296.262 99.0908C299.216 91.3761 301.451 83.3909 304.784 75.8257C305.961 73.1387 307.576 70.5205 308.075 67.3786ZM305.395 51.4367C304.645 46.9758 302.938 46.0894 299.376 48.2882C295.785 50.5275 292.103 52.8532 290.187 56.8377C287.877 61.6353 286.221 66.7495 284.779 71.8634C284.249 73.766 284.31 75.818 284.647 77.8237C284.909 79.3799 285.489 79.6734 286.739 78.6811C294.641 72.5881 301.202 65.4758 304.893 56.037C305.585 54.4628 305.846 52.8544 305.395 51.4367ZM334.481 27.8795C329.044 34.0916 323.928 40.5342 320.814 48.347C325.809 41.8182 331.132 35.5542 334.481 27.8795Z" fill="#FD7306"/>
<path d="M239.7 90.6772C239.244 83.9622 240.065 78.0993 242.075 72.3566C244.387 65.6741 247.821 59.5499 251.703 53.777C254.732 49.2498 257.772 44.3652 261.784 40.846C265.763 37.3326 269.373 33.3122 274.111 30.5245C279.973 27.05 285.871 23.9963 292.49 22.4926C293.477 22.2555 294.004 21.598 294.508 20.8022C295.836 18.801 297.273 16.817 298.723 14.9022C299.387 14.0082 300.43 13.0506 301.483 13.8337C302.65 14.6687 301.285 15.6093 300.879 16.3532C300.095 17.8006 299.122 19.1732 298.108 20.517C297.1 21.8954 297.469 22.6157 299.037 22.8854C299.29 22.9141 299.583 22.9715 299.744 23.0866C300.595 23.7258 302.543 23.9319 301.914 25.2466C301.319 26.5555 300.058 25.1673 299.173 24.7472C296.816 23.5788 295.835 24.0637 294.244 26.607C286.848 38.4465 281.234 51.1955 275.039 63.6509C270.086 73.5864 265.788 83.8385 259.673 93.1869C257.555 96.3877 254.555 98.1365 251.354 99.7414C249.684 100.555 247.828 100.05 246.276 99.2437C243.867 97.9774 239.66 93.813 239.7 90.6772ZM292.109 24.4412C291.718 24.4357 291.465 24.4071 291.224 24.4476C290.685 24.6095 290.111 24.777 289.583 25.008C276.717 29.802 266.304 38.0239 257.78 48.6307C250.516 57.6745 245.179 67.8524 242.715 79.3251C241.736 83.8277 240.724 88.5494 243.552 92.9454C246.623 97.7274 250.145 98.6643 254.113 95.5083C255.518 94.3832 256.865 93.1256 257.913 91.5627C264.578 81.6951 269.104 70.6935 274.297 60.0776C278.781 50.9322 282.886 41.6371 287.876 32.7622C289.409 30.0864 291.173 27.5143 292.109 24.4412Z" fill="#FD7306"/>
<path d="M61.6795 114.836C65.3362 114.043 68.8542 112.847 72.0721 110.92C73.5864 110.025 74.5318 108.906 74.9359 107.096C76.2162 101.227 79.0201 96.2042 83.4281 92.0852C86.4546 89.2296 89.2105 86.0284 93.239 84.4978C95.7353 83.5449 98.1407 83.105 100.224 85.1728C102.14 87.0908 102.564 89.402 101.742 92.1002C100.156 97.2028 97.0925 101.523 94.4944 106.084C93.9508 107.064 93.0967 107.883 93.1396 109.192C96.4014 106.261 99.8301 103.48 102.315 99.9334C104.343 97.0325 107.095 94.8631 109.306 92.2156C109.954 91.4312 111.198 90.6175 112.119 91.6717C113.086 92.7892 111.928 93.4818 111.142 94.2894C105.44 99.9772 100.634 106.154 99.8583 114.605C99.8019 115.113 99.8488 115.602 99.8958 116.092C100.037 117.775 100.526 118.369 102.155 117.099C105.813 114.209 109.08 110.886 112.341 107.529C117.584 102.06 122.126 95.9988 126.922 90.1791C127.334 89.6831 127.908 89.3022 128.487 88.9559C129.032 88.6154 129.629 88.5862 130.072 89.1161C130.516 89.6461 130.482 90.2917 130.024 90.7244C127.926 92.7838 126.794 95.5342 124.789 97.7204C121.225 101.591 120.649 106.595 121.095 111.569C121.313 114.128 122.985 114.594 124.888 112.851C131.354 106.858 138.24 101.255 142.123 92.9576C143.347 90.3339 145.968 88.8621 148.055 86.9468C148.852 86.2084 150.085 85.7521 150.972 86.812C151.991 88.0275 150.965 88.8756 150.03 89.4239C148.257 90.4686 147.664 92.4174 146.495 93.8939C144.393 96.5585 141.94 99.0332 140.482 102.159C140.036 103.087 139.664 104.038 139.764 105.053C139.905 106.523 139.484 108.442 140.956 109.191C142.427 109.939 143.049 107.95 144.151 107.338C147.914 105.283 150.952 102.283 154.168 99.5025C155.062 98.7121 155.847 97.9045 156.299 96.7975C157.43 94.0471 159.125 91.6997 161.062 89.5252C161.985 88.4811 163.2 87.2813 164.667 88.6348C166.088 89.9249 165.252 91.0611 164.29 92.2896C162.044 95.1561 159.183 97.5216 157.438 100.837C156.66 102.319 156.497 103.876 156.586 105.461C156.711 107.467 158.033 108.382 159.622 107.297C166.412 102.6 174.026 98.7958 177.886 90.7864C179.121 88.2319 180.983 86.0343 183.237 84.2688C184.297 83.4149 184.668 82.2502 185.229 81.1604C187.488 76.6914 190.208 72.6428 194.896 70.397C198.338 68.7516 201.043 68.8303 202.804 70.6678C204.778 72.7184 205.667 77.5827 204.179 80.1086C202.067 83.7704 199.391 87.0293 196.474 90.1153C193.827 92.9072 191.507 95.964 188.342 98.2029C187.585 98.7568 187.643 99.3159 188.643 99.5746C189.758 99.885 190.838 99.9879 192.066 99.7103C201.641 97.4608 211.105 94.7676 220.819 93.1348C221.749 92.9784 222.713 92.603 223.967 93.3169C221.276 94.8003 218.624 95.4594 216.024 96.0032C208.096 97.7269 200.452 100.292 192.605 102.287C190.298 102.888 188.121 102.791 186.057 101.68C184.89 101.059 184.063 101.198 183.135 101.994C182.418 102.577 181.655 103.096 180.829 103.448C177.598 104.88 176.196 104.334 174.863 101.038C174.026 99.0091 173.168 100.647 172.709 101.079C169.849 103.658 166.758 105.92 163.529 107.992C163.466 108.038 163.403 108.084 163.305 108.136C157.208 112.112 154.834 111.054 153.665 103.463C150.5 106.128 147.358 108.506 144.037 110.664C140.234 113.117 138.194 112.357 137.381 107.942C137.27 107.285 137.441 106.403 136.826 106.116C135.946 105.73 135.627 106.779 135.105 107.258C131.975 110.131 129.191 113.373 125.577 115.687C121.895 118.013 119.217 116.827 118.375 112.453C117.853 109.767 118.617 107.15 118.887 104.331C115.263 107.002 113.427 111.044 110.137 113.802C107.901 115.671 105.975 117.915 103.561 119.565C102.225 120.466 100.866 121.654 99.296 120.531C97.6051 119.322 96.6251 117.496 96.9308 115.311C97.2365 113.126 97.68 110.918 98.1853 108.024C94.7404 111.341 91.8862 114.167 88.8708 116.879C86.4402 119.065 83.739 120.906 81.2565 122.995C79.7945 124.201 78.4552 123.608 77.9292 121.954C76.9641 118.951 74.2547 116.74 74.3453 113.276C74.3718 112.169 73.4704 112.285 72.6844 112.666C68.5534 114.64 64.2726 116.356 60.355 118.756C58.3016 120.026 57.4676 122.229 56.1563 124.12C53.1842 128.353 49.3319 131.775 44.6967 134.332C40.6753 136.537 37.2182 136.62 33.7431 133.435C32.483 132.26 30.2336 133.207 29.1352 135.312C27.2302 138.939 25.3251 142.566 23.535 146.245C21.8934 149.543 19.6193 152.45 17.5868 155.53C17.1058 156.251 16.4003 156.689 15.6085 157.036C15.0175 157.313 14.3925 157.809 13.7712 157.274C12.9889 156.623 13.3723 155.954 13.8649 155.302C14.008 155.1 14.2085 154.818 14.1392 154.616C12.3458 148.161 16.7405 143.12 18.0785 137.384C18.5224 135.389 18.3775 134.738 16.3833 134.042C10.2454 131.873 7.70265 126.86 8.98748 120.386C10.6706 112.067 14.1184 104.553 18.8192 97.5406C20.6057 94.8935 23.2268 93.2083 25.3242 90.9357C28.9229 87.0594 33.4664 84.5889 38.2402 82.4352C42.618 80.4548 47.2231 80.0363 51.88 79.7158C53.2466 79.6283 54.1422 79.4777 54.4783 78.1056C55.384 74.4331 58.601 72.0789 59.9724 68.6481C60.2181 68.0023 60.8547 67.5753 61.6192 67.909C62.5331 68.2888 62.4713 68.9748 62.2202 69.7993C61.2211 72.7052 60.4519 75.7147 58.1823 78.0163C57.0017 79.2104 56.5623 80.5999 58.5623 81.3305C61.9992 82.6018 64.6795 84.6403 66.151 88.1266C67.8707 92.2467 67.7013 96.5067 66.923 100.727C66.1108 105.166 64.6378 109.467 62.3198 113.377C61.8782 113.7 61.4657 114.196 61.6795 114.836ZM45.4635 81.79C42.851 82.0513 40.3771 82.7161 38.0593 83.8879C35.0128 85.3601 32.6859 87.7425 30.0885 89.7792C25.0886 93.7488 20.813 98.0233 17.585 103.473C14.2769 109.078 11.6067 114.896 11.2984 121.491C11.0564 126.794 12.3357 128.926 17.463 131.193C19.0322 131.89 20.1864 131.802 20.9519 129.825C21.7918 127.657 23.0512 125.667 24.2359 123.654C25.5007 121.486 27.7451 120.931 29.4713 122.561C31.278 124.249 32.0627 123.228 32.7661 121.723C33.881 119.295 34.8408 116.787 35.996 114.388C39.336 107.497 42.7909 100.658 46.0504 93.71C47.743 90.083 49.9415 86.7265 51.8698 83.2377C52.6595 81.8249 52.1988 81.1912 50.6944 81.3018C48.9372 81.3838 47.1746 81.6446 45.4635 81.79ZM65.0739 92.2546C64.2037 87.9206 62.0209 84.8383 58.3184 82.8294C56.4499 81.8278 55.3074 81.9843 54.1745 84.0949C48.0526 95.5069 42.4308 107.155 36.8895 118.86C35.9002 120.982 34.796 123.053 33.8412 125.169C33.2408 126.443 33.6223 127.659 34.5661 128.638C35.5157 129.652 36.2199 128.574 36.9773 128.233C40.1156 126.674 43.2597 125.15 46.346 123.494C51.9681 120.486 58.3098 118.389 60.9953 111.608C61.5667 110.161 62.0173 108.627 62.7322 107.192C65.1805 102.371 65.4171 97.2462 65.0739 92.2546ZM90.5494 103.476C86.2714 103.733 85.8592 107.18 84.5666 109.815C83.5142 111.983 82.0423 113.973 81.6395 116.423C81.5545 116.971 81.1022 117.651 81.7978 117.997C82.4186 118.319 82.8021 117.65 83.1917 117.229C86.412 113.63 89.4654 109.881 91.9553 105.729C94.6339 101.225 97.6976 96.9049 99.3241 91.8311C99.9291 89.9515 99.2654 88.3208 98.0854 86.9901C96.8709 85.6652 95.4197 86.5137 94.1805 87.1487C89.7055 89.3943 86.4396 93.1435 83.0699 96.6968C80.7833 99.108 79.7962 102.296 78.4123 105.231C78.0978 105.889 77.7376 106.696 78.3419 107.341C78.9865 108.015 79.5534 107.173 80.1448 107.109C82.4643 106.79 83.4602 105.13 84.2374 103.221C84.5917 102.379 85.0208 101.56 85.4557 100.776C85.8678 100.067 86.5044 99.6398 87.3319 99.9274C88.2342 100.238 88.2529 100.982 88.1052 101.789C88.0086 102.267 87.6189 102.688 87.9647 103.27C88.6603 103.616 89.3475 102.647 90.5494 103.476ZM184.427 93.6694C184.979 96.7413 185.628 97.0233 188.002 95.1308C191.551 92.223 194.956 89.0904 197.907 85.572C200.302 82.7515 202.777 79.7753 202.389 75.5734C202.112 72.2419 200.226 70.9233 197.173 72.1476C194.482 73.2045 192.263 74.751 190.637 77.3C187.86 81.6426 185.986 86.2957 184.468 91.1734C184.188 92.0383 184.253 92.8452 184.427 93.6694ZM15.9385 152.678C20.4365 147.619 22.48 141.444 25.7367 135.954C25.9828 135.522 26.0736 135.009 25.4872 134.68C24.5845 134.157 20.5386 135.583 20.2133 136.598C18.61 141.81 16.7482 146.959 15.9385 152.678ZM53.7976 122.099C48.8238 124.748 43.8097 127.369 38.882 130.082C38.1993 130.446 36.9476 130.585 37.1506 131.582C37.3769 132.717 38.6518 132.716 39.6342 132.871C40.1053 132.934 40.6738 132.945 41.1042 132.766C46.5387 130.751 50.3035 126.598 53.7976 122.099ZM25.1085 132.006C25.8663 131.879 26.4233 131.821 27.003 131.688C29.0349 131.133 29.2091 129.219 29.3783 127.697C29.4902 126.256 28.2185 125.012 26.8797 124.632C25.1328 124.144 24.9242 126.063 24.2084 127.073C23.7502 127.718 23.4992 128.543 23.2079 129.339C22.9225 130.169 22.1203 131.086 22.7134 131.875C23.3584 132.762 24.4308 131.978 25.1085 132.006ZM181.076 92.277C179.38 93.9844 178.442 95.9911 177.544 98.0266C177.087 99.0991 176.958 100.436 177.987 101.295C178.776 101.98 179.613 101.27 180.192 100.711C181.103 99.8108 183.158 99.6075 182.477 97.6597C181.87 95.9482 181.367 94.2193 181.076 92.277Z" fill="#FD7306"/>
</svg>
