<svg width="" height="" viewBox="0 0 48 48" fill="none" xmlns="http://www.w3.org/2000/svg">
<circle cx="24.3924" cy="24.3924" r="23.6077" fill="#92C63B"/>
<path d="M36.1076 17.7843C36.1076 19.5356 34.6844 21.013 32.8685 21.013C31.1116 21.013 29.6295 19.5454 29.6295 17.7843C29.6295 15.9841 31.1018 14.5557 32.8685 14.5557C34.6746 14.5654 36.1076 15.9841 36.1076 17.7843Z" fill="white"/>
<path d="M18.9784 18.5443C19.3952 16.8102 18.3228 15.0676 16.5831 14.6522C14.8434 14.2367 13.0952 15.3057 12.6784 17.0398C12.2616 18.7739 13.334 20.5165 15.0737 20.9319C16.8134 21.3474 18.5616 20.2784 18.9784 18.5443Z" fill="white"/>
<path fill-rule="evenodd" clip-rule="evenodd" d="M35.7205 30.8708C35.3588 30.4878 34.8701 30.2964 34.3814 30.2964C34.329 30.2964 34.2766 30.2985 34.2245 30.3029C34.2259 30.3 34.2274 30.2971 34.2288 30.2942L14.5557 30.2942L14.559 30.3007C14.016 30.2557 13.4588 30.4495 13.0631 30.8708C12.3887 31.5984 12.4376 32.7185 13.1804 33.3791C19.3188 38.884 29.4746 38.884 35.613 33.3791C36.346 32.7185 36.3949 31.5984 35.7205 30.8708Z" fill="white"/>
</svg>
