<svg width="" height="" viewBox="0 0 48 48" fill="none" xmlns="http://www.w3.org/2000/svg">
<circle cx="23.6077" cy="24.3924" r="23.6077" fill="#FF3334"/>
<path d="M35.2611 17.7912C35.2611 19.5425 33.8379 21.0198 32.022 21.0198C30.2651 21.0198 28.783 19.5523 28.783 17.7912C28.783 15.9909 30.2553 14.5625 32.022 14.5625C33.8281 14.5723 35.2611 15.9909 35.2611 17.7912Z" fill="white"/>
<path d="M18.8586 18.5444C19.2754 16.8103 18.203 15.0677 16.4633 14.6522C14.7236 14.2367 12.9754 15.3057 12.5585 17.0398C12.1417 18.7739 13.2141 20.5165 14.9538 20.932C16.6935 21.3474 18.4417 20.2785 18.8586 18.5444Z" fill="white"/>
<path fill-rule="evenodd" clip-rule="evenodd" d="M12.2795 35.6199C12.6412 36.0029 13.1299 36.1944 13.6186 36.1944C13.6709 36.1944 13.7232 36.1922 13.7753 36.1879C13.774 36.1906 13.7726 36.1934 13.7712 36.1962H33.4443L33.4412 36.19C33.9841 36.235 34.5412 36.0411 34.9369 35.6199C35.6113 34.8923 35.5624 33.7722 34.8196 33.1116C28.6812 27.6067 18.5254 27.6067 12.3871 33.1116C11.654 33.7722 11.6051 34.8923 12.2795 35.6199Z" fill="white"/>
</svg>
