<svg width="" height="" viewBox="0 0 48 48" fill="none" xmlns="http://www.w3.org/2000/svg">
<circle cx="24.0539" cy="24.3924" r="23.6077" fill="#F8931F"/>
<path d="M14.0724 36.3526C13.5816 36.3526 13.0908 36.1569 12.7277 35.7656C12.0504 35.022 12.0995 33.8773 12.8357 33.2022C18.9997 27.5765 29.1979 27.5765 35.3619 33.2022C36.1079 33.8773 36.157 35.022 35.4797 35.7656C34.8025 36.4994 33.6541 36.5581 32.9081 35.883C28.0789 31.4802 20.1089 31.4802 15.2895 35.883C14.9558 36.1961 14.5141 36.3526 14.0724 36.3526Z" fill="white"/>
<path d="M35.7691 17.7843C35.7691 19.5356 34.3459 21.013 32.53 21.013C30.7731 21.013 29.291 19.5454 29.291 17.7843C29.291 15.9841 30.7633 14.5557 32.53 14.5557C34.3361 14.5654 35.7691 15.9841 35.7691 17.7843Z" fill="white"/>
<path d="M18.6399 18.5443C19.0567 16.8102 17.9843 15.0676 16.2446 14.6522C14.5049 14.2367 12.7567 15.3057 12.3399 17.0398C11.9231 18.7739 12.9955 20.5165 14.7352 20.9319C16.4749 21.3474 18.2231 20.2784 18.6399 18.5443Z" fill="white"/>
</svg>
