<svg width="" height="" viewBox="0 0 48 48" fill="none" xmlns="http://www.w3.org/2000/svg">
<circle cx="23.9462" cy="24.3924" r="23.6077" fill="#9ED970"/>
<path d="M34.0262 30.2958C34.517 30.2958 35.0078 30.4915 35.371 30.8829C36.0482 31.6264 35.9991 32.7711 35.263 33.4462C29.0989 39.072 18.9007 39.072 12.7367 33.4462C11.9907 32.7711 11.9416 31.6264 12.6189 30.8829C13.2962 30.1491 14.4446 30.0904 15.1905 30.7655C20.0197 35.1682 27.9898 35.1682 32.8091 30.7655C33.1429 30.4524 33.5846 30.2958 34.0262 30.2958Z" fill="white"/>
<path d="M35.5996 17.7912C35.5996 19.5425 34.1764 21.0198 32.3605 21.0198C30.6036 21.0198 29.1215 19.5523 29.1215 17.7912C29.1215 15.9909 30.5938 14.5625 32.3605 14.5625C34.1666 14.5723 35.5996 15.9909 35.5996 17.7912Z" fill="white"/>
<path d="M19.1971 18.5444C19.6139 16.8103 18.5415 15.0677 16.8018 14.6522C15.0621 14.2367 13.3139 15.3057 12.897 17.0398C12.4802 18.7739 13.5526 20.5165 15.2923 20.932C17.032 21.3474 18.7802 20.2785 19.1971 18.5444Z" fill="white"/>
</svg>
