<svg width="" height="" viewBox="0 0 49 48" fill="none" xmlns="http://www.w3.org/2000/svg">
<circle cx="24.5" cy="24.3924" r="23.6077" fill="#F9D600"/>
<path d="M36.2153 17.7843C36.2153 19.5356 34.7921 21.013 32.9762 21.013C31.2192 21.013 29.7371 19.5454 29.7371 17.7843C29.7371 15.9841 31.2094 14.5557 32.9762 14.5557C34.7822 14.5654 36.2153 15.9841 36.2153 17.7843Z" fill="white"/>
<path d="M19.0861 18.5443C19.5029 16.8102 18.4305 15.0676 16.6908 14.6522C14.9511 14.2367 13.2029 15.3057 12.7861 17.0398C12.3692 18.7739 13.4417 20.5165 15.1814 20.9319C16.9211 21.3474 18.6693 20.2784 19.0861 18.5443Z" fill="white"/>
<path d="M35.4053 32.7993C35.4053 33.7973 34.7378 34.5996 33.8839 34.5996H15.5291C14.7242 34.5996 14.0077 33.7973 14.0077 32.7993C14.0077 31.8014 14.7242 30.9502 15.5291 30.9502H33.8937C34.7476 30.9502 35.4053 31.8014 35.4053 32.7993Z" fill="white"/>
</svg>
