<svg width="" height="" viewBox="0 0 43 44" fill="none" xmlns="http://www.w3.org/2000/svg">
<path fill-rule="evenodd" clip-rule="evenodd" d="M0.813049 6.875C0.813049 3.07804 3.71042 0 7.28452 0H35.759C39.3331 0 42.2304 3.07804 42.2304 6.875V37.125C42.2304 40.922 39.3331 44 35.759 44H7.28452C3.71042 44 0.813049 40.922 0.813049 37.125V6.875ZM29.4169 15.8125C30.3229 15.675 31.0995 15.5375 31.8761 15.125C31.3584 16.0875 30.5818 16.9125 29.6758 17.4625C29.9347 23.925 25.5341 30.9375 17.6389 30.9375C15.3091 30.9375 13.1088 30.1125 11.1674 28.875C13.3677 29.15 15.6974 28.4625 17.2506 27.225C15.3091 27.225 13.756 25.85 13.2383 24.0625C13.8854 24.2 14.5326 24.0625 15.1797 23.925C13.2383 23.375 11.8145 21.45 11.8145 19.3875C12.4617 19.6625 13.1088 19.9375 13.756 19.9375C11.944 18.5625 11.2968 15.95 12.4617 13.8875C14.662 16.6375 17.7683 18.425 21.2629 18.5625C20.6157 15.8125 22.6866 13.0625 25.4046 13.0625C26.5695 13.0625 27.7344 13.6125 28.5109 14.4375C29.5464 14.1625 30.4524 13.8875 31.2289 13.3375C30.9701 14.4375 30.3229 15.2625 29.4169 15.8125Z" fill="#B2D947"/>
</svg>
