<svg width="" height="" viewBox="0 0 308 214" fill="none" xmlns="http://www.w3.org/2000/svg">
<path d="M28.1784 191.363C22.8072 173.32 21.3823 154.332 24.0004 135.69C26.6186 117.047 33.2186 99.1866 43.352 83.3212C53.4853 67.4557 66.9148 53.9571 82.7279 43.7423C98.5411 33.5275 116.368 26.8358 134.996 24.1218C153.625 21.4079 172.62 22.7352 190.69 28.0136C208.761 33.292 225.483 42.3979 239.722 54.7127C253.961 67.0274 265.383 82.2626 273.211 99.3832C281.039 116.504 285.091 135.109 285.091 153.934" stroke="#F9D600" stroke-width="44" stroke-linecap="round"/>
<path d="M28.1784 191.363C22.8072 173.32 21.3823 154.332 24.0004 135.69C26.6186 117.047 33.2186 99.1866 43.352 83.3212C53.4853 67.4557 66.9148 53.9571 82.7279 43.7423C98.5411 33.5275 116.368 26.8358 134.996 24.1218C153.625 21.4079 172.62 22.7352 190.69 28.0136C208.761 33.292 225.483 42.3979 239.722 54.7127C253.961 67.0274 265.383 82.2626 273.211 99.3832C281.039 116.504 285.091 135.109 285.091 153.934" stroke="#F8931F" stroke-width="44" stroke-linecap="round"/>
</svg>
