<?xml version="1.0" encoding="UTF-8"?><!DOCTYPE svg PUBLIC "-//W3C//DTD SVG 1.1//EN" "http://www.w3.org/Graphics/SVG/1.1/DTD/svg11.dtd"><svg xmlns="http://www.w3.org/2000/svg" xmlns:xlink="http://www.w3.org/1999/xlink"><symbol id="arrow-down" viewBox="0 0 39 21"><g fill="none"><path d="m1 1 18.5 18.5L38 1" stroke="#000"/></g></symbol><symbol id="arrow-next"><g fill="none"><path d="m1 1 8.938 8.938L1 18.874" stroke="#FD7306" stroke-width="2" stroke-linecap="round" stroke-linejoin="round"/></g></symbol><symbol id="arrow-prev"><g fill="none"><path d="M9.938 1.125 1 10.063 9.938 19" stroke="#FD7306" stroke-width="2" stroke-linecap="round" stroke-linejoin="round"/></g></symbol><symbol id="arrow-test" viewBox="0 0 31 55"><g fill="none"><path d="m2 53 26-25.5L2 2" stroke="#F68400" stroke-width="4" stroke-linecap="round"/></g></symbol><symbol id="avatar" viewBox="0 0 40 40"><g fill="none"><path fill-rule="evenodd" clip-rule="evenodd" d="M26 16a6 6 0 1 1-12 0 6 6 0 0 1 12 0Zm-2 0a4 4 0 1 1-8 0 4 4 0 0 1 8 0Z" fill="#5B994C"/><path d="M20 25c-6.474 0-11.99 3.828-14.092 9.192a20.1 20.1 0 0 0 1.615 1.44C9.088 30.708 13.997 27 20 27s10.912 3.708 12.477 8.632c.564-.45 1.103-.932 1.615-1.44C31.991 28.828 26.474 25 20 25Z" fill="#5B994C"/><rect x="1" y="1" width="38" height="38" rx="19" stroke="#5B994C" stroke-width="2"/></g></symbol><symbol id="close" viewBox="0 0 34 34"><g fill="none"><path d="m1 1 32 32M33 1 1 33" stroke="#000"/></g></symbol><symbol id="enc_sector" viewBox="0 0 250 296"><g fill="none"><path d="M236.022 29.544a147.568 147.568 0 1 0 13.919 225.849l-39.509-41.678a90.143 90.143 0 0 1-95.052 18.447 90.14 90.14 0 1 1 86.55-156.404l34.092-46.214Z" fill="#C0EC79"/></g></symbol><symbol id="encircle1" viewBox="0 0 525 682"><g fill="none"><path fill-rule="evenodd" clip-rule="evenodd" d="M682 341c0 188.329-152.671 341-341 341S0 529.329 0 341 152.671 0 341 0s341 152.671 341 341Zm-80 0c0 144.146-116.854 261-261 261-144.146 0-261-116.854-261-261C80 196.854 196.854 80 341 80c144.146 0 261 116.854 261 261Z" fill="#C0EC79"/></g></symbol><symbol id="encircle10" viewBox="0 0 420 419"><g fill="none"><path fill-rule="evenodd" clip-rule="evenodd" d="M210 392c101.129 0 183-81.769 183-182.5S311.129 27 210 27 27 108.769 27 209.5 108.871 392 210 392Zm0 27c115.98 0 210-93.796 210-209.5S325.98 0 210 0 0 93.796 0 209.5 94.02 419 210 419Z" fill="#C0EC79" fill-opacity=".77"/></g></symbol><symbol id="encircle11" viewBox="0 0 443 442"><g fill="none"><path fill-rule="evenodd" clip-rule="evenodd" d="M221.5 395c96.474 0 174.5-78.003 174.5-174S317.974 47 221.5 47 47 125.003 47 221s78.026 174 174.5 174Zm0 47C343.831 442 443 343.055 443 221S343.831 0 221.5 0 0 98.945 0 221s99.169 221 221.5 221Z" fill="#FFB157" fill-opacity=".33"/></g></symbol><symbol id="encircle12" viewBox="0 0 139 138"><g fill="none"><path fill-rule="evenodd" clip-rule="evenodd" d="M69.5 113.264c24.798 0 44.702-19.927 44.702-44.264 0-24.337-19.904-44.264-44.702-44.264S24.798 44.663 24.798 69c0 24.337 19.904 44.264 44.702 44.264Zm0 24.736c38.384 0 69.5-30.892 69.5-69 0-38.108-31.116-69-69.5-69S0 30.892 0 69c0 38.108 31.116 69 69.5 69Z" fill="#FFEE40"/></g></symbol><symbol id="encircle13" viewBox="0 0 358 358"><g fill="none"><path fill-rule="evenodd" clip-rule="evenodd" d="M0 179c0 98.859 80.141 179 179 179s179-80.141 179-179S277.859 0 179 0 0 80.141 0 179Zm42.675 0c0 75.29 61.035 136.324 136.325 136.324 75.29 0 136.325-61.034 136.325-136.324 0-75.29-61.035-136.325-136.325-136.325-75.29 0-136.325 61.035-136.325 136.325Z" fill="#FFB157"/></g></symbol><symbol id="encircle14"><g fill="none"><path opacity=".4" fill-rule="evenodd" clip-rule="evenodd" d="M0 364c0 201.032 162.968 364 364 364s364-162.968 364-364S565.032 0 364 0 0 162.968 0 364Zm85.396 0c0 153.869 124.735 278.604 278.604 278.604 153.869 0 278.604-124.735 278.604-278.604 0-153.869-124.735-278.604-278.604-278.604C210.131 85.396 85.396 210.13 85.396 364Z" fill="#C0EC79"/></g></symbol><symbol id="encircle15" viewBox="0 0 55 55"><g fill="none"><mask id="a" fill="#fff"><path fill-rule="evenodd" clip-rule="evenodd" d="M27.5 55C42.688 55 55 42.688 55 27.5S42.688 0 27.5 0 0 12.312 0 27.5 12.312 55 27.5 55Zm0-8C38.27 47 47 38.27 47 27.5S38.27 8 27.5 8 8 16.73 8 27.5 16.73 47 27.5 47Z"/></mask><path fill-rule="evenodd" clip-rule="evenodd" d="M27.5 55C42.688 55 55 42.688 55 27.5S42.688 0 27.5 0 0 12.312 0 27.5 12.312 55 27.5 55Zm0-8C38.27 47 47 38.27 47 27.5S38.27 8 27.5 8 8 16.73 8 27.5 16.73 47 27.5 47Z" fill="#fff"/><path d="M47 27.5C47 38.27 38.27 47 27.5 47v16C47.106 63 63 47.106 63 27.5H47ZM27.5 8C38.27 8 47 16.73 47 27.5h16C63 7.894 47.106-8 27.5-8V8ZM8 27.5C8 16.73 16.73 8 27.5 8V-8C7.894-8-8 7.894-8 27.5H8ZM27.5 47C16.73 47 8 38.27 8 27.5H-8C-8 47.106 7.894 63 27.5 63V47ZM39 27.5C39 33.851 33.851 39 27.5 39v16C42.688 55 55 42.688 55 27.5H39ZM27.5 16C33.851 16 39 21.149 39 27.5h16C55 12.312 42.688 0 27.5 0v16ZM16 27.5C16 21.149 21.149 16 27.5 16V0C12.312 0 0 12.312 0 27.5h16ZM27.5 39C21.149 39 16 33.851 16 27.5H0C0 42.688 12.312 55 27.5 55V39Z" fill="#FFEE40" mask="url(#a)"/></g></symbol><symbol id="encircle16"><g fill="none"><path fill-rule="evenodd" clip-rule="evenodd" d="M638 319c0 176.179-142.821 319-319 319S0 495.179 0 319 142.821 0 319 0s319 142.821 319 319Zm-8.882 0c0 171.274-138.844 310.118-310.118 310.118S8.882 490.274 8.882 319 147.726 8.882 319 8.882 629.118 147.726 629.118 319Z" fill="#FFB45B" fill-opacity=".7"/></g></symbol><symbol id="encircle17"><g fill="none"><path opacity=".6" fill-rule="evenodd" clip-rule="evenodd" d="M0 225.5C0 350.04 100.96 451 225.5 451S451 350.04 451 225.5 350.04 0 225.5 0 0 100.96 0 225.5Zm52.903 0c0 95.323 77.274 172.597 172.597 172.597 95.323 0 172.597-77.274 172.597-172.597 0-95.323-77.274-172.597-172.597-172.597-95.323 0-172.597 77.274-172.597 172.597Z" fill="#C0EC79"/></g></symbol><symbol id="encircle18" viewBox="0 0 155 155"><g fill="none"><path fill-rule="evenodd" clip-rule="evenodd" d="M145 77.5c0 37.279-30.221 67.5-67.5 67.5C40.22 145 10 114.779 10 77.5 10 40.22 40.22 10 77.5 10c37.279 0 67.5 30.22 67.5 67.5Zm-1.577 0c0 36.408-29.515 65.923-65.923 65.923S11.577 113.908 11.577 77.5 41.092 11.577 77.5 11.577s65.923 29.515 65.923 65.923Z" fill="#FFB157" stroke="#FFB157" stroke-width="20"/></g></symbol><symbol id="encircle19" viewBox="0 0 844 844"><g fill="none"><path fill-rule="evenodd" clip-rule="evenodd" d="M844 422c0 233.064-188.936 422-422 422S0 655.064 0 422 188.936 0 422 0s422 188.936 422 422Zm-99.003 0c0 178.386-144.611 322.997-322.997 322.997-178.386 0-322.997-144.611-322.997-322.997C99.003 243.614 243.614 99.003 422 99.003c178.386 0 322.997 144.611 322.997 322.997Z" fill="#C0EC79"/></g></symbol><symbol id="encircle2" viewBox="0 0 302 302"><g fill="none"><path fill-rule="evenodd" clip-rule="evenodd" d="M302 151c0 83.395-67.605 151-151 151S0 234.395 0 151 67.605 0 151 0s151 67.605 151 151Zm-36 0c0 63.513-51.487 115-115 115S36 214.513 36 151 87.487 36 151 36s115 51.487 115 115Z" fill="#9ED970"/></g></symbol><symbol id="encircle20" viewBox="0 0 351 350"><g fill="none"><mask id="a" fill="#fff"><path fill-rule="evenodd" clip-rule="evenodd" d="M175.5 350c96.926 0 175.5-78.35 175.5-175S272.426 0 175.5 0 0 78.35 0 175s78.574 175 175.5 175Zm0-37c76.491 0 138.5-61.785 138.5-138S251.991 37 175.5 37 37 98.785 37 175s62.009 138 138.5 138Z"/></mask><path fill-rule="evenodd" clip-rule="evenodd" d="M175.5 350c96.926 0 175.5-78.35 175.5-175S272.426 0 175.5 0 0 78.35 0 175s78.574 175 175.5 175Zm0-37c76.491 0 138.5-61.785 138.5-138S251.991 37 175.5 37 37 98.785 37 175s62.009 138 138.5 138Z" fill="#fff"/><path d="M175.5 388C293.31 388 389 292.739 389 175h-76c0 75.561-61.459 137-137.5 137v76ZM389 175c0-117.739-95.69-213-213.5-213v76C251.541 38 313 99.44 313 175h76ZM175.5-38C57.69-38-38 57.261-38 175h76C38 99.44 99.459 38 175.5 38v-76ZM-38 175c0 117.739 95.69 213 213.5 213v-76C99.459 312 38 250.561 38 175h-76Zm213.5 176c97.349 0 176.5-78.668 176.5-176h-76c0 55.099-44.866 100-100.5 100v76ZM352 175C352 77.668 272.849-1 175.5-1v76C231.134 75 276 119.901 276 175h76ZM175.5-1C78.151-1-1 77.668-1 175h76c0-55.099 44.866-100 100.5-100V-1ZM-1 175c0 97.332 79.151 176 176.5 176v-76C119.866 275 75 230.099 75 175H-1Z" fill="#FFEE40" mask="url(#a)"/></g></symbol><symbol id="encircle21" viewBox="0 0 171 171"><g fill="none"><path fill-rule="evenodd" clip-rule="evenodd" d="M156 85.5c0 38.936-31.564 70.5-70.5 70.5S15 124.436 15 85.5 46.564 15 85.5 15 156 46.564 156 85.5Zm-1.963 0c0 37.852-30.685 68.537-68.537 68.537-37.852 0-68.537-30.685-68.537-68.537 0-37.852 30.685-68.537 68.537-68.537 37.852 0 68.537 30.685 68.537 68.537Z" fill="#DCF68F"/><path d="M85.5 163.5c43.078 0 78-34.922 78-78s-34.922-78-78-78-78 34.922-78 78 34.922 78 78 78Zm61.037-78c0 33.71-27.327 61.037-61.037 61.037-33.71 0-61.037-27.327-61.037-61.037 0-33.71 27.327-61.037 61.037-61.037 33.71 0 61.037 27.327 61.037 61.037Z" stroke="#C0EC79" stroke-opacity=".77" stroke-width="15"/></g></symbol><symbol id="encircle22" viewBox="0 0 351 350"><g fill="none"><mask id="a" fill="#fff"><path fill-rule="evenodd" clip-rule="evenodd" d="M175.5 350c96.926 0 175.5-78.35 175.5-175S272.426 0 175.5 0 0 78.35 0 175s78.574 175 175.5 175Zm0-36c77.044 0 139.5-62.232 139.5-139S252.544 36 175.5 36 36 98.232 36 175s62.456 139 139.5 139Z"/></mask><path fill-rule="evenodd" clip-rule="evenodd" d="M175.5 350c96.926 0 175.5-78.35 175.5-175S272.426 0 175.5 0 0 78.35 0 175s78.574 175 175.5 175Zm0-36c77.044 0 139.5-62.232 139.5-139S252.544 36 175.5 36 36 98.232 36 175s62.456 139 139.5 139Z" fill="#fff"/><path d="M175.5 388C293.31 388 389 292.739 389 175h-76c0 75.561-61.459 137-137.5 137v76ZM389 175c0-117.739-95.69-213-213.5-213v76C251.541 38 313 99.44 313 175h76ZM175.5-38C57.69-38-38 57.261-38 175h76C38 99.44 99.459 38 175.5 38v-76ZM-38 175c0 117.739 95.69 213 213.5 213v-76C99.459 312 38 250.561 38 175h-76Zm213.5 177c97.902 0 177.5-79.117 177.5-177h-76c0 55.652-45.314 101-101.5 101v76ZM353 175C353 77.117 273.402-2 175.5-2v76C231.686 74 277 119.348 277 175h76ZM175.5-2C77.598-2-2 77.117-2 175h76c0-55.652 45.314-101 101.5-101V-2ZM-2 175c0 97.883 79.598 177 177.5 177v-76C119.314 276 74 230.652 74 175H-2Z" fill="#FFB157" mask="url(#a)"/></g></symbol><symbol id="encircle23" viewBox="0 0 240 239"><g fill="none"><mask id="a" fill="#fff"><path fill-rule="evenodd" clip-rule="evenodd" d="M120 239c66.274 0 120-53.502 120-119.5C240 53.502 186.274 0 120 0S0 53.502 0 119.5C0 185.498 53.726 239 120 239Zm0-25.266c52.302 0 94.701-42.19 94.701-94.234S172.302 25.266 120 25.266c-52.302 0-94.7 42.19-94.7 94.234s42.398 94.234 94.7 94.234Z"/></mask><path fill-rule="evenodd" clip-rule="evenodd" d="M120 239c66.274 0 120-53.502 120-119.5C240 53.502 186.274 0 120 0S0 53.502 0 119.5C0 185.498 53.726 239 120 239Zm0-25.266c52.302 0 94.701-42.19 94.701-94.234S172.302 25.266 120 25.266c-52.302 0-94.7 42.19-94.7 94.234s42.398 94.234 94.7 94.234Z" fill="#fff"/><path d="M120 277c87.111 0 158-70.366 158-157.5h-76c0 44.862-36.563 81.5-82 81.5v76Zm158-157.5C278 32.366 207.111-38 120-38v76c45.437 0 82 36.638 82 81.5h76ZM120-38C32.889-38-38 32.366-38 119.5h76C38 74.638 74.563 38 120 38v-76ZM-38 119.5C-38 206.634 32.889 277 120 277v-76c-45.437 0-82-36.638-82-81.5h-76Zm158 132.234c73.111 0 132.701-59.026 132.701-132.234h-76c0 30.881-25.209 56.234-56.701 56.234v76ZM252.701 119.5c0-73.208-59.59-132.234-132.701-132.234v76c31.492 0 56.701 25.353 56.701 56.234h76ZM120-12.734c-73.112 0-132.7 59.026-132.7 132.234h76c0-30.88 25.208-56.234 56.7-56.234v-76ZM-12.7 119.5c0 73.208 59.588 132.234 132.7 132.234v-76c-31.492 0-56.7-25.353-56.7-56.234h-76Z" fill="#FFEE40" mask="url(#a)"/></g></symbol><symbol id="encircle24" viewBox="0 0 332 332"><g fill="none"><path opacity=".4" fill-rule="evenodd" clip-rule="evenodd" d="M332 166c0 91.679-74.321 166-166 166C74.32 332 0 257.679 0 166 0 74.32 74.32 0 166 0c91.679 0 166 74.32 166 166Zm-39.576 0c0 69.822-56.602 126.424-126.424 126.424S39.576 235.822 39.576 166 96.178 39.576 166 39.576 292.424 96.178 292.424 166Z" fill="#9ED970"/></g></symbol><symbol id="encircle25" viewBox="0 0 402 400"><g fill="none"><path fill-rule="evenodd" clip-rule="evenodd" d="M201 400c111.009 0 201-89.543 201-200S312.009 0 201 0C89.99 0 0 89.543 0 200s89.99 200 201 200Zm0-42.286c87.606 0 158.624-70.611 158.624-157.714S288.606 42.286 201 42.286 42.376 112.897 42.376 200 113.394 357.714 201 357.714Z" fill="#fff"/><path d="M383 200c0 99.874-81.395 181-182 181S19 299.874 19 200 100.395 19 201 19s182 81.126 182 181ZM201 376.714c97.996 0 177.624-79.015 177.624-176.714S298.996 23.286 201 23.286 23.376 102.3 23.376 200 103.004 376.714 201 376.714Z" stroke="#FFEE40" stroke-opacity=".66" stroke-width="38"/></g></symbol><symbol id="encircle26" viewBox="0 0 297 297"><g fill="none"><mask id="a" fill="#fff"><path fill-rule="evenodd" clip-rule="evenodd" d="M273.296 228.63c44.434-69.038 24.581-160.88-44.342-205.134C160.031-20.76 68.138-.668 23.704 68.37-20.73 137.408-.877 229.25 68.046 273.504c68.923 44.255 160.816 24.164 205.25-44.874Zm-25.672-16.484c35.319-54.876 19.571-127.858-35.173-163.008-54.745-35.151-127.756-19.16-163.075 35.716C14.057 139.73 29.805 212.712 84.55 247.862c54.745 35.151 127.756 19.16 163.075-35.716Z"/></mask><path fill-rule="evenodd" clip-rule="evenodd" d="M273.296 228.63c44.434-69.038 24.581-160.88-44.342-205.134C160.031-20.76 68.138-.668 23.704 68.37-20.73 137.408-.877 229.25 68.046 273.504c68.923 44.255 160.816 24.164 205.25-44.874Zm-25.672-16.484c35.319-54.876 19.571-127.858-35.173-163.008-54.745-35.151-127.756-19.16-163.075 35.716C14.057 139.73 29.805 212.712 84.55 247.862c54.745 35.151 127.756 19.16 163.075-35.716Z" fill="#fff"/><path d="m273.296 228.63-31.954-20.566 31.954 20.566ZM228.954 23.496l-20.531 31.976 20.531-31.976ZM23.704 68.37-8.25 47.804 23.704 68.37Zm44.342 205.134L47.514 305.48l20.532-31.976Zm179.578-61.358L215.67 191.58l31.954 20.566ZM49.376 84.854 17.423 64.288l31.953 20.566ZM305.25 249.196c55.754-86.628 30.903-202.028-55.764-257.676l-41.063 63.952c51.178 32.86 66.032 101.144 32.919 152.592l63.908 41.132ZM249.486-8.48C162.845-64.11 47.488-38.797-8.25 47.804l63.908 41.132c33.13-51.475 101.559-66.343 152.765-33.464L249.486-8.48ZM-8.25 47.804c-55.754 86.628-30.903 202.028 55.764 257.676l41.063-63.952C37.4 208.667 22.545 140.384 55.657 88.936L-8.25 47.804ZM47.514 305.48c86.641 55.631 201.998 30.317 257.736-56.284l-63.908-41.132c-33.13 51.475-101.559 66.343-152.765 33.464L47.514 305.48Zm232.064-72.768c46.625-72.444 25.915-168.992-46.596-215.55l-41.063 63.952c36.978 23.743 47.763 73.157 23.751 110.466l63.908 41.132Zm-46.596-215.55C160.498-29.38 64.031-8.128 17.422 64.288L81.33 105.42c24.03-37.335 73.584-48.067 110.589-24.306l41.063-63.952ZM17.422 64.288c-46.625 72.444-25.915 168.992 46.596 215.55l41.063-63.952c-36.978-23.743-47.763-73.157-23.75-110.466L17.421 64.288Zm46.596 215.55c72.484 46.541 168.951 25.291 215.56-47.126L215.67 191.58c-24.03 37.335-73.584 48.067-110.589 24.306l-41.063 63.952Z" fill="#FFB157" fill-opacity=".7" mask="url(#a)"/></g></symbol><symbol id="encircle27" viewBox="0 0 744 744"><g fill="none"><path fill-rule="evenodd" clip-rule="evenodd" d="M572.729 59.735C745.185 170.598 795.116 400.273 684.253 572.73 573.39 745.185 343.715 795.116 171.259 684.253-1.197 573.39-51.128 343.715 59.735 171.259 170.598-1.197 400.273-51.128 572.73 59.735Zm-4.69 7.296C736.466 175.304 785.23 399.613 676.957 568.039 568.684 736.466 344.375 785.23 175.949 676.957 7.522 568.685-41.241 344.375 67.031 175.949 175.304 7.523 399.613-41.241 568.039 67.031Z" fill="#9ED970" fill-opacity=".22"/></g></symbol><symbol id="encircle28" viewBox="0 0 402 400"><g fill="none"><path fill-rule="evenodd" clip-rule="evenodd" d="M201 400c111.009 0 201-89.543 201-200S312.009 0 201 0C89.99 0 0 89.543 0 200s89.99 200 201 200Zm0-42.286c87.606 0 158.624-70.611 158.624-157.714S288.606 42.286 201 42.286 42.376 112.897 42.376 200 113.394 357.714 201 357.714Z" fill="#fff"/><path d="M383 200c0 99.874-81.395 181-182 181S19 299.874 19 200 100.395 19 201 19s182 81.126 182 181ZM201 376.714c97.996 0 177.624-79.015 177.624-176.714S298.996 23.286 201 23.286 23.376 102.3 23.376 200 103.004 376.714 201 376.714Z" stroke="#B4E47C" stroke-opacity=".45" stroke-width="38"/></g></symbol><symbol id="encircle29" viewBox="0 0 862 602"><g fill="none"><path fill-rule="evenodd" clip-rule="evenodd" d="M862 431c0 238.035-192.965 431-431 431S0 669.035 0 431 192.965 0 431 0s431 192.965 431 431Zm-12 0c0 231.407-187.593 419-419 419S12 662.407 12 431 199.593 12 431 12s419 187.593 419 419Z" fill="#FFB45B"/></g></symbol><symbol id="encircle3" viewBox="0 0 853 420"><g fill="none"><path fill-rule="evenodd" clip-rule="evenodd" d="M862 431c0 238.035-192.966 431-431 431C192.965 862 0 669.035 0 431S192.965 0 431 0c238.034 0 431 192.965 431 431Zm-12 0c0 231.407-187.593 419-419 419-231.408 0-419-187.593-419-419S199.592 12 431 12c231.407 0 419 187.593 419 419Z" fill="#FFB45B"/></g></symbol><symbol id="encircle4" viewBox="0 0 351 350"><g fill="none"><mask id="a" fill="#fff"><path fill-rule="evenodd" clip-rule="evenodd" d="M175.5 350c96.926 0 175.5-78.35 175.5-175S272.426 0 175.5 0 0 78.35 0 175s78.574 175 175.5 175Zm0-36c77.044 0 139.5-62.232 139.5-139S252.544 36 175.5 36 36 98.232 36 175s62.456 139 139.5 139Z"/></mask><path fill-rule="evenodd" clip-rule="evenodd" d="M175.5 350c96.926 0 175.5-78.35 175.5-175S272.426 0 175.5 0 0 78.35 0 175s78.574 175 175.5 175Zm0-36c77.044 0 139.5-62.232 139.5-139S252.544 36 175.5 36 36 98.232 36 175s62.456 139 139.5 139Z" fill="#fff"/><path d="M175.5 388C293.31 388 389 292.739 389 175h-76c0 75.561-61.459 137-137.5 137v76ZM389 175c0-117.739-95.69-213-213.5-213v76C251.541 38 313 99.44 313 175h76ZM175.5-38C57.69-38-38 57.261-38 175h76C38 99.44 99.459 38 175.5 38v-76ZM-38 175c0 117.739 95.69 213 213.5 213v-76C99.459 312 38 250.561 38 175h-76Zm213.5 177c97.902 0 177.5-79.117 177.5-177h-76c0 55.652-45.314 101-101.5 101v76ZM353 175C353 77.117 273.402-2 175.5-2v76C231.686 74 277 119.348 277 175h76ZM175.5-2C77.598-2-2 77.117-2 175h76c0-55.652 45.314-101 101.5-101V-2ZM-2 175c0 97.883 79.598 177 177.5 177v-76C119.314 276 74 230.652 74 175H-2Z" fill="#FFB157" mask="url(#a)"/></g></symbol><symbol id="encircle5" viewBox="0 0 428 428"><g fill="none"><path fill-rule="evenodd" clip-rule="evenodd" d="M428 214c0 118.189-95.811 214-214 214S0 332.189 0 214 95.811 0 214 0s214 95.811 214 214Zm-5 0c0 115.428-93.572 209-209 209C98.573 423 5 329.428 5 214 5 98.573 98.573 5 214 5c115.428 0 209 93.573 209 209Z" fill="#9ED970"/></g></symbol><symbol id="encircle6" viewBox="0 0 507 506"><g fill="none"><g opacity=".88"><mask id="a" fill="#fff"><path fill-rule="evenodd" clip-rule="evenodd" d="M253.5 506C393.504 506 507 392.728 507 253S393.504 0 253.5 0C113.496 0 0 113.272 0 253s113.496 253 253.5 253Zm0-84c93.612 0 169.5-75.664 169.5-169S347.112 84 253.5 84 84 159.664 84 253s75.888 169 169.5 169Z"/></mask><path fill-rule="evenodd" clip-rule="evenodd" d="M253.5 506C393.504 506 507 392.728 507 253S393.504 0 253.5 0C113.496 0 0 113.272 0 253s113.496 253 253.5 253Zm0-84c93.612 0 169.5-75.664 169.5-169S347.112 84 253.5 84 84 159.664 84 253s75.888 169 169.5 169Z" fill="#fff"/><path d="M421 253c0 92.072-74.832 167-167.5 167v172C440.841 592 593 440.385 593 253H421ZM253.5 86C346.168 86 421 160.928 421 253h172C593 65.615 440.841-86 253.5-86V86ZM86 253c0-92.072 74.832-167 167.5-167V-86C66.16-86-86 65.615-86 253H86Zm167.5 167C160.832 420 86 345.072 86 253H-86c0 187.385 152.16 339 339.5 339V420ZM337 253c0 45.6-37.145 83-83.5 83v172C394.369 508 509 394.072 509 253H337Zm-83.5-83c46.355 0 83.5 37.4 83.5 83h172C509 111.928 394.369-2 253.5-2v172ZM170 253c0-45.6 37.145-83 83.5-83V-2C112.631-2-2 111.928-2 253h172Zm83.5 83c-46.355 0-83.5-37.4-83.5-83H-2c0 141.072 114.631 255 255.5 255V336Z" fill="#DCF68F" mask="url(#a)"/></g></g></symbol><symbol id="encircle7" viewBox="0 0 351 350"><g fill="none"><mask id="a" fill="#fff"><path fill-rule="evenodd" clip-rule="evenodd" d="M175.5 350c96.926 0 175.5-78.35 175.5-175S272.426 0 175.5 0 0 78.35 0 175s78.574 175 175.5 175Zm0-37c76.491 0 138.5-61.785 138.5-138S251.991 37 175.5 37 37 98.785 37 175s62.009 138 138.5 138Z"/></mask><path fill-rule="evenodd" clip-rule="evenodd" d="M175.5 350c96.926 0 175.5-78.35 175.5-175S272.426 0 175.5 0 0 78.35 0 175s78.574 175 175.5 175Zm0-37c76.491 0 138.5-61.785 138.5-138S251.991 37 175.5 37 37 98.785 37 175s62.009 138 138.5 138Z" fill="#fff"/><path d="M175.5 388C293.31 388 389 292.739 389 175h-76c0 75.561-61.459 137-137.5 137v76ZM389 175c0-117.739-95.69-213-213.5-213v76C251.541 38 313 99.44 313 175h76ZM175.5-38C57.69-38-38 57.261-38 175h76C38 99.44 99.459 38 175.5 38v-76ZM-38 175c0 117.739 95.69 213 213.5 213v-76C99.459 312 38 250.561 38 175h-76Zm213.5 176c97.349 0 176.5-78.668 176.5-176h-76c0 55.099-44.866 100-100.5 100v76ZM352 175C352 77.668 272.849-1 175.5-1v76C231.134 75 276 119.901 276 175h76ZM175.5-1C78.151-1-1 77.668-1 175h76c0-55.099 44.866-100 100.5-100V-1ZM-1 175c0 97.332 79.151 176 176.5 176v-76C119.866 275 75 230.099 75 175H-1Z" fill="#FFEE40" mask="url(#a)"/></g></symbol><symbol id="encircle8" viewBox="0 0 541 540"><g fill="none"><g opacity=".88"><mask id="a" fill="#fff"><path fill-rule="evenodd" clip-rule="evenodd" d="M270.5 540C419.893 540 541 419.117 541 270 541 120.883 419.893 0 270.5 0S0 120.883 0 270c0 149.117 121.107 270 270.5 270Zm0-84C373.501 456 457 372.725 457 270S373.501 84 270.5 84 84 167.275 84 270s83.499 186 186.5 186Z"/></mask><path fill-rule="evenodd" clip-rule="evenodd" d="M270.5 540C419.893 540 541 419.117 541 270 541 120.883 419.893 0 270.5 0S0 120.883 0 270c0 149.117 121.107 270 270.5 270Zm0-84C373.501 456 457 372.725 457 270S373.501 84 270.5 84 84 167.275 84 270s83.499 186 186.5 186Z" fill="#fff" fill-opacity=".88"/><path d="M270.5 626C467.239 626 627 466.763 627 270H455c0 101.47-82.453 184-184.5 184v172ZM627 270C627 73.237 467.239-86 270.5-86V86C372.547 86 455 168.53 455 270h172ZM270.5-86C73.76-86-86 73.237-86 270H86c0-101.47 82.453-184 184.5-184V-86ZM-86 270c0 196.763 159.76 356 356.5 356V454C168.453 454 86 371.47 86 270H-86Zm356.5 272C420.78 542 543 420.439 543 270H371c0 55.011-44.778 100-100.5 100v172ZM543 270C543 119.561 420.78-2 270.5-2v172c55.722 0 100.5 44.989 100.5 100h172ZM270.5-2C120.22-2-2 119.561-2 270h172c0-55.011 44.778-100 100.5-100V-2ZM-2 270c0 150.439 122.22 272 272.5 272V370C214.778 370 170 325.011 170 270H-2Z" fill="#C0EC79" fill-opacity=".88" mask="url(#a)"/></g></g></symbol><symbol id="encircle9" viewBox="0 0 532 532"><g fill="none"><path fill-rule="evenodd" clip-rule="evenodd" d="M532 266c0 146.908-119.092 266-266 266C119.092 532 0 412.908 0 266 0 119.092 119.092 0 266 0c146.908 0 266 119.092 266 266Zm-5 0c0 144.146-116.854 261-261 261C121.854 527 5 410.146 5 266 5 121.854 121.854 5 266 5c144.146 0 261 116.854 261 261Z" fill="#9ED970"/></g></symbol><symbol id="exclamation_point" viewBox="0 0 31 135"><g fill="none"><path d="M1.356 0h28.675l-4.843 89.364H6.006L1.356 0Zm14.338 135c-4.521 0-8.267-1.4-11.238-4.201C1.486 127.871 0 124.307 0 120.106s1.485-7.701 4.456-10.502c2.971-2.801 6.717-4.201 11.238-4.201 4.391 0 8.008 1.4 10.85 4.201 2.97 2.801 4.456 6.301 4.456 10.502 0 4.201-1.485 7.765-4.456 10.693C23.702 133.6 20.085 135 15.694 135Z" fill="#F2994A"/></g></symbol><symbol id="facebook" viewBox="0 0 43 44"><g fill="none"><path fill-rule="evenodd" clip-rule="evenodd" d="M.913 6.875C.913 3.078 3.81 0 7.384 0H35.86c3.574 0 6.471 3.078 6.471 6.875v30.25c0 3.797-2.897 6.875-6.471 6.875H7.384C3.81 44 .913 40.922.913 37.125V6.875ZM21.622 11c5.695 0 10.354 4.95 10.354 11 0 5.5-3.753 10.175-8.93 11v-7.837h2.459L26.022 22h-2.847v-2.063c0-.825.388-1.65 1.683-1.65h1.294v-2.75s-1.165-.275-2.33-.275c-2.33 0-3.883 1.513-3.883 4.263V22h-2.588v3.163h2.588v7.7C15.021 32.037 11.267 27.5 11.267 22c0-6.05 4.66-11 10.355-11Z" fill="#B2D947"/></g></symbol><symbol id="instagram" viewBox="0 0 43 44"><g fill="none"><path d="M21.572 25.85c-1.942 0-3.624-1.65-3.624-3.85 0-2.063 1.553-3.85 3.624-3.85 1.941 0 3.624 1.65 3.624 3.85 0 2.063-1.683 3.85-3.624 3.85Z" fill="#B2D947"/><path fill-rule="evenodd" clip-rule="evenodd" d="M25.972 12.65h-8.8c-1.036.137-1.554.275-1.942.412-.518.138-.906.413-1.295.825-.307.327-.452.653-.628 1.048-.046.104-.094.213-.148.327-.02.064-.043.131-.068.203-.135.393-.32.93-.32 1.86v9.35c.129 1.1.258 1.65.388 2.063.13.55.388.962.776 1.375.308.326.615.48.986.666.098.05.2.101.309.159.06.02.123.045.19.072.37.143.876.34 1.751.34h8.801c1.036-.138 1.553-.275 1.942-.413.517-.137.906-.412 1.294-.825.307-.326.453-.652.628-1.047.046-.104.095-.213.149-.328a8.1 8.1 0 0 1 .068-.202c.135-.393.32-.93.32-1.86v-9.35c-.13-1.1-.259-1.65-.388-2.063-.13-.55-.389-.962-.777-1.375-.307-.326-.614-.48-.986-.667-.098-.049-.2-.1-.308-.158a6.665 6.665 0 0 1-.191-.072c-.37-.143-.875-.34-1.75-.34Zm-4.4 3.437c-3.107 0-5.566 2.613-5.566 5.913 0 3.3 2.46 5.913 5.566 5.913S27.137 25.3 27.137 22c0-3.3-2.459-5.913-5.565-5.913Zm6.989-.137c0 .76-.58 1.375-1.294 1.375-.715 0-1.295-.616-1.295-1.375 0-.76.58-1.375 1.295-1.375.714 0 1.294.616 1.294 1.375Z" fill="#B2D947"/><path fill-rule="evenodd" clip-rule="evenodd" d="M.863 6.875C.863 3.078 3.76 0 7.334 0H35.81c3.574 0 6.471 3.078 6.471 6.875v30.25c0 3.797-2.897 6.875-6.471 6.875H7.335C3.76 44 .862 40.922.862 37.125V6.875Zm16.308 3.713h8.801c1.165.137 1.942.275 2.589.55.776.412 1.294.687 1.941 1.374a6.048 6.048 0 0 1 1.295 2.063c.259.688.517 1.512.517 2.75v9.35c-.13 1.238-.258 2.063-.517 2.75-.389.825-.648 1.375-1.295 2.063-.647.687-1.294 1.1-1.941 1.374-.647.276-1.424.55-2.589.55h-8.8c-1.166-.137-1.942-.274-2.59-.55-.776-.412-1.294-.687-1.94-1.375a6.048 6.048 0 0 1-1.295-2.062c-.259-.688-.518-1.512-.518-2.75v-9.35c.13-1.238.259-2.063.518-2.75.388-.825.647-1.375 1.294-2.063.647-.687 1.294-1.1 1.941-1.375.648-.274 1.424-.55 2.59-.55Z" fill="#B2D947"/></g></symbol><symbol id="signature" viewBox="0 0 401 158"><g fill="none"><path d="M359.269 59.449c-2.995 1.57-5.157 2.823-6.773 5.014-2.096 2.913-5.245 4.616-8.285 6.336-1.618.911-2.734.174-3.288-1.44-.572-1.716-.369-3.457-.062-5.216.238-1.533.866-3.061.024-5.124-2.361 2.601-4.493 5.093-6.917 7.314-2.368 2.14-4.753 4.177-7.391 5.972-1.462.992-2.977 1.674-4.639.637-1.742-1.094-2.28-2.817-2.083-4.806.433-4.588 2.297-8.67 4.649-12.586.275-.473.814-.848.744-1.69-2.953 2.239-5.349 4.846-7.531 7.666-.441.537-.266 2-1.577 1.154-1.035-.679-.652-1.561-.085-2.403 1.608-2.44 3.137-4.937 5.522-6.76 1.606-1.194 3.211-2.389 4.863-3.52.665-.467 1.474-.923 2.291-.278.782.65.537 1.51.321 2.328-.411 1.563-1.022 2.981-1.812 4.394-1.9 3.448-3.759 6.926-4.331 10.898-.142 1.055-.489 2.358.511 3.043 1.156.766 1.9-.497 2.76-1.069 5.219-3.508 9.874-7.633 14.08-12.323.688-.755 1.272-1.494 1.523-2.531 2.095-9.029 7.423-15.685 15.005-20.728.665-.468 1.462-.78 2.266-1.057 4.166-1.554 7.549 1.291 6.886 5.776-.085.548-.486 1.113.003 1.707 1.102-.399 1.163-1.511 1.627-2.336 2.672-4.752 5.419-9.48 10.37-12.268 4.302-2.43 8.068-.254 8.204 4.772.108 4.854-1.353 9.437-3.653 13.664-1.402 2.618-3.459 4.92-5.217 7.313-2.887 3.899-6.891 6.208-11.263 8.01-.695.294-1.555.652-2.165.185-1.749-1.341-2.056-.01-2.49 1.201-1.137 3.143-2.244 6.245-3.501 9.727 7.787-3.407 15.015-7.395 23.323-8.33-2.876.804-5.244 2.731-7.975 3.759-4.832 1.808-9.37 4.313-14.086 6.386-3.259 1.472-3.856 4.88-4.768 7.877-2.574 8.291-5.337 16.507-7.278 24.977-1.104 4.808-2.209 9.616-4.175 14.142-.332.767-.548 1.586-1.035 2.272-1.753 2.428-2.844 2.47-5.059.46-2.756-2.489-4.146-5.704-4.802-9.185-.924-5.072-2.278-10.178-1.168-15.378 1.707-7.754 7.233-12.808 13.029-17.516 2.839-2.29 6.074-4.114 9.091-6.186.888-.612 1.858-1.166 2.235-2.296 1.279-3.77 2.557-7.541 4.082-11.958Zm-6.306 17.274c-4.474 2.672-8.551 5.811-12.657 8.777-3.601 2.597-5.614 6.847-7.006 11.205-1.832 5.749-.271 11.247 1.314 16.67.665 2.27 1.388 4.673 2.982 6.574 1.324 1.556 2.26 1.434 2.837-.405 1.295-4.307 2.658-8.626 3.66-12.99 1.566-6.912 3.47-13.704 5.817-20.392 1.068-3.131 2.141-6.227 3.053-9.439ZM345.491 50.6c.843-.675 1.158-.906 1.439-1.131.59-.49 1.186-1.16 1.957-.578.846.605.267 1.377-.013 2.029-.251.611-.578 1.2-.904 1.788-1.505 2.635-2.481 5.466-3.153 8.423-.176.848-.283 2.11.911 1.625 2.651-1.085 5.838-1.301 7.866-3.562 5.186-5.815 8.704-12.486 9.757-20.344.197-1.562.005-2.916-1.18-3.855-1.185-.939-2.349-.068-3.456.51-6.202 3.14-9.746 8.607-13.224 15.095Zm20.319 5.83c.808-.457 1.204-.63 1.526-.826.413-.283.779-.629 1.238-.848 8.417-4.295 12.801-11.504 14.833-20.486.467-2.07.193-3.909-.626-5.833-.762-1.792-1.79-2.01-3.339-1.11-3.315 1.98-5.693 4.904-7.633 8.11-1.111 1.823-3.14 3.657-.993 6.105.127.121.047.49-.016.75-.717 2.894-.843 5.937-2.785 8.504-1.065 1.46-1.946 3.172-2.205 5.633Z" fill="#FD7306"/><path d="M308.075 67.379c-1.149-.092-1.573.548-1.997.975-4.796 5.18-10.842 8.828-16.26 13.259-.31.265-.7.473-1.05.71-2.105 1.385-4.296 2.464-6.7.806-2.364-1.63-2.323-4.126-2.023-6.558.571-4.399 1.797-8.694 3.483-12.782 1.211-2.906 1.475-6.187 3.439-8.828.35-.45.612-1.205 1.048-1.35 3.731-1.196 5.717-4.765 8.94-6.658 1.165-.658 2.277-1.414 3.511-1.87 3.575-1.277 6.934 1.216 7.299 5.28.293 3.222-.93 6.059-2.038 8.947-1.474 3.875-4.052 7.082-6.314 10.485-.395.6-1.14 1.01-1.035 1.845.396.253.689.097.936-.122 4.712-3.992 9.931-7.5 13.096-12.904 2.616-4.458 4.656-9.175 7.117-13.713 3.158-5.865 6.276-11.758 10.993-16.569.573-.594 1.014-1.344 1.627-1.91.98-.91 2.161-1.891 3.53-.913 1.409 1.008 1.274 2.524.502 3.828-2.055 3.367-4.076 6.73-6.338 9.919-4.495 6.338-9.284 12.406-13.86 18.686-3.768 5.185-5.875 11.407-8.356 17.3-3.737 8.948-6.797 18.139-9.822 27.324-2.774 8.573-6.829 16.686-9.04 25.45-.131.484-.297.974-.468 1.43-.223.57-.601 1.061-1.308.859-.85-.212-.972-.938-.727-1.584 1.257-3.269 1.388-6.918 2.943-10.096 3.06-6.239 4.568-13.071 7.059-19.534 2.954-7.715 5.189-15.7 8.522-23.265 1.177-2.687 2.792-5.305 3.291-8.447Zm-2.68-15.942c-.75-4.461-2.457-5.348-6.019-3.149-3.591 2.24-7.273 4.565-9.189 8.55-2.31 4.797-3.966 9.911-5.408 15.025-.53 1.903-.469 3.955-.132 5.96.262 1.557.842 1.85 2.092.858 7.902-6.093 14.463-13.205 18.154-22.644.692-1.574.953-3.183.502-4.6Zm29.086-23.557c-5.437 6.212-10.553 12.654-13.667 20.467 4.995-6.529 10.318-12.793 13.667-20.468ZM239.7 90.677c-.456-6.715.365-12.578 2.375-18.32 2.312-6.683 5.746-12.807 9.628-18.58 3.029-4.527 6.069-9.412 10.081-12.931 3.979-3.513 7.589-7.534 12.327-10.321 5.862-3.475 11.76-6.529 18.379-8.032.987-.237 1.514-.895 2.018-1.69a117.26 117.26 0 0 1 4.215-5.9c.664-.895 1.707-1.852 2.76-1.07 1.167.836-.198 1.776-.604 2.52-.784 1.448-1.757 2.82-2.771 4.164-1.008 1.378-.639 2.099.929 2.368.253.03.546.086.707.202.851.639 2.799.845 2.17 2.16-.595 1.308-1.856-.08-2.741-.5-2.357-1.168-3.338-.683-4.929 1.86-7.396 11.84-13.01 24.589-19.205 37.044-4.953 9.935-9.251 20.187-15.366 29.536-2.118 3.2-5.118 4.95-8.319 6.554-1.67.814-3.526.309-5.078-.497-2.409-1.267-6.616-5.431-6.576-8.567Zm52.409-66.236c-.391-.005-.644-.034-.885.007-.539.162-1.113.329-1.641.56-12.866 4.794-23.279 13.016-31.803 23.623-7.264 9.044-12.601 19.221-15.065 30.694-.979 4.503-1.991 9.224.837 13.62 3.071 4.782 6.593 5.72 10.561 2.563 1.405-1.125 2.752-2.382 3.8-3.945 6.665-9.868 11.191-20.87 16.384-31.485 4.484-9.146 8.589-18.44 13.579-27.316 1.533-2.676 3.297-5.248 4.233-8.32ZM61.68 114.836c3.656-.793 7.174-1.989 10.392-3.916 1.514-.895 2.46-2.014 2.864-3.824 1.28-5.869 4.084-10.892 8.492-15.01 3.027-2.856 5.782-6.058 9.811-7.588 2.496-.953 4.902-1.393 6.985.675 1.916 1.918 2.34 4.229 1.518 6.927-1.586 5.103-4.65 9.423-7.248 13.984-.543.98-1.397 1.799-1.354 3.108 3.261-2.931 6.69-5.712 9.175-9.259 2.028-2.9 4.78-5.07 6.991-7.717.648-.785 1.892-1.598 2.813-.544.967 1.117-.191 1.81-.977 2.617-5.702 5.688-10.508 11.865-11.284 20.316-.056.508-.01.997.038 1.487.141 1.683.63 2.277 2.259 1.007 3.658-2.89 6.925-6.213 10.186-9.57 5.243-5.469 9.785-11.53 14.581-17.35.412-.496.986-.877 1.565-1.223.545-.34 1.142-.37 1.585.16.444.53.41 1.176-.048 1.608-2.098 2.06-3.23 4.81-5.235 6.996-3.564 3.871-4.14 8.875-3.694 13.849.218 2.559 1.89 3.025 3.793 1.282 6.466-5.993 13.352-11.596 17.235-19.893 1.224-2.624 3.845-4.096 5.932-6.011.797-.739 2.03-1.195 2.917-.135 1.019 1.216-.007 2.064-.942 2.612-1.773 1.045-2.366 2.993-3.535 4.47-2.102 2.664-4.555 5.14-6.013 8.265-.446.928-.818 1.879-.718 2.894.141 1.47-.28 3.389 1.192 4.138 1.471.748 2.093-1.241 3.195-1.853 3.763-2.055 6.801-5.055 10.017-7.835.894-.79 1.679-1.599 2.131-2.706 1.131-2.75 2.826-5.097 4.763-7.272.923-1.044 2.138-2.244 3.605-.89 1.421 1.29.585 2.426-.377 3.655-2.246 2.866-5.107 5.232-6.852 8.547-.778 1.482-.941 3.039-.852 4.624.125 2.006 1.447 2.921 3.036 1.836 6.79-4.697 14.404-8.501 18.264-16.51 1.235-2.555 3.097-4.753 5.351-6.518 1.06-.854 1.431-2.019 1.992-3.109 2.259-4.469 4.979-8.517 9.667-10.763 3.442-1.645 6.147-1.567 7.908.27 1.974 2.051 2.863 6.916 1.375 9.442-2.112 3.661-4.788 6.92-7.705 10.006-2.647 2.792-4.967 5.849-8.132 8.088-.757.554-.699 1.113.301 1.372 1.115.31 2.195.413 3.423.135 9.575-2.25 19.039-4.942 28.753-6.575.93-.157 1.894-.532 3.148.182-2.691 1.483-5.343 2.142-7.943 2.686-7.928 1.724-15.572 4.289-23.419 6.284-2.307.601-4.484.504-6.548-.607-1.167-.621-1.994-.482-2.922.314-.717.583-1.48 1.102-2.306 1.454-3.231 1.432-4.633.886-5.966-2.41-.837-2.029-1.695-.391-2.154.041-2.86 2.579-5.951 4.841-9.18 6.913a1.691 1.691 0 0 1-.224.144c-6.097 3.976-8.471 2.918-9.64-4.673-3.165 2.665-6.307 5.043-9.628 7.201-3.803 2.453-5.843 1.693-6.656-2.722-.111-.657.06-1.539-.555-1.826-.88-.386-1.199.663-1.721 1.142-3.13 2.873-5.914 6.115-9.528 8.429-3.682 2.326-6.36 1.14-7.202-3.234-.522-2.686.242-5.303.512-8.122-3.624 2.671-5.46 6.713-8.75 9.471-2.236 1.869-4.162 4.113-6.576 5.763-1.336.901-2.695 2.089-4.265.966-1.69-1.209-2.67-3.035-2.365-5.22.306-2.185.749-4.393 1.254-7.287-3.445 3.317-6.299 6.143-9.314 8.855-2.43 2.186-5.132 4.027-7.614 6.116-1.463 1.206-2.802.613-3.328-1.041-.965-3.003-3.674-5.214-3.584-8.678.027-1.107-.875-.991-1.66-.61-4.132 1.974-8.412 3.69-12.33 6.09-2.053 1.27-2.887 3.473-4.199 5.364-2.972 4.233-6.824 7.655-11.46 10.212-4.02 2.205-7.478 2.288-10.953-.897-1.26-1.175-3.51-.228-4.608 1.877-1.905 3.627-3.81 7.254-5.6 10.933-1.642 3.298-3.916 6.205-5.948 9.285-.481.721-1.187 1.159-1.979 1.506-.59.277-1.216.773-1.837.238-.782-.651-.399-1.32.094-1.972.143-.202.344-.484.274-.686-1.793-6.455 2.602-11.496 3.94-17.232.443-1.995.299-2.646-1.696-3.342-6.138-2.169-8.68-7.182-7.396-13.656 1.684-8.319 5.131-15.833 9.832-22.845 1.787-2.647 4.408-4.333 6.505-6.605 3.599-3.877 8.142-6.347 12.916-8.5 4.378-1.981 8.983-2.4 13.64-2.72 1.367-.088 2.262-.238 2.598-1.61.906-3.673 4.123-6.027 5.494-9.458.246-.646.883-1.073 1.647-.739.914.38.852 1.066.601 1.89-.999 2.906-1.768 5.916-4.038 8.217-1.18 1.194-1.62 2.584.38 3.314 3.437 1.272 6.118 3.31 7.589 6.797 1.72 4.12 1.55 8.38.772 12.6-.812 4.439-2.285 8.74-4.603 12.65-.442.323-.854.819-.64 1.459ZM45.463 81.79c-2.613.261-5.087.926-7.405 2.098-3.046 1.472-5.373 3.855-7.97 5.891-5 3.97-9.276 8.244-12.504 13.694-3.308 5.605-5.978 11.423-6.287 18.018-.242 5.303 1.038 7.435 6.165 9.702 1.57.697 2.723.609 3.489-1.368.84-2.168 2.1-4.158 3.284-6.171 1.265-2.168 3.51-2.723 5.235-1.093 1.807 1.688 2.592.667 3.295-.838 1.115-2.428 2.075-4.936 3.23-7.335 3.34-6.891 6.795-13.73 10.054-20.678 1.693-3.627 3.892-6.983 5.82-10.472.79-1.413.329-2.047-1.176-1.936-1.757.082-3.52.343-5.23.488Zm19.61 10.465c-.87-4.334-3.053-7.417-6.756-9.426-1.868-1.001-3.01-.845-4.143 1.266-6.122 11.412-11.744 23.06-17.285 34.765-.99 2.122-2.094 4.193-3.049 6.309-.6 1.274-.219 2.49.725 3.469.95 1.014 1.654-.064 2.411-.405 3.139-1.559 6.283-3.083 9.369-4.739 5.622-3.008 11.964-5.105 14.65-11.886.57-1.447 1.021-2.981 1.736-4.416 2.448-4.821 2.685-9.946 2.342-14.937Zm25.475 11.221c-4.278.257-4.69 3.704-5.982 6.339-1.053 2.168-2.525 4.158-2.927 6.608-.085.548-.538 1.228.158 1.574.62.322 1.004-.347 1.394-.768 3.22-3.599 6.273-7.348 8.763-11.5 2.679-4.504 5.743-8.824 7.37-13.898.604-1.88-.06-3.51-1.24-4.84-1.214-1.326-2.665-.477-3.904.158-4.475 2.245-7.741 5.995-11.111 9.548-2.287 2.411-3.274 5.599-4.658 8.534-.314.658-.674 1.465-.07 2.11.645.674 1.211-.168 1.803-.232 2.32-.319 3.315-1.979 4.092-3.888.355-.842.784-1.661 1.219-2.445.412-.709 1.048-1.136 1.876-.849.902.311.92 1.055.773 1.862-.096.478-.486.899-.14 1.481.695.346 1.382-.623 2.584.206Zm93.878-9.807c.552 3.072 1.201 3.354 3.575 1.462 3.549-2.908 6.954-6.04 9.905-9.559 2.395-2.82 4.87-5.797 4.482-9.999-.277-3.331-2.163-4.65-5.216-3.425-2.691 1.056-4.91 2.603-6.536 5.152-2.777 4.343-4.651 8.996-6.169 13.873-.28.865-.215 1.672-.041 2.496ZM15.939 152.678c4.497-5.059 6.541-11.234 9.798-16.724.246-.432.337-.945-.25-1.274-.902-.523-4.948.903-5.274 1.918-1.603 5.212-3.465 10.361-4.275 16.08Zm37.859-30.579c-4.974 2.649-9.988 5.27-14.916 7.983-.683.364-1.934.503-1.731 1.5.226 1.135 1.5 1.134 2.483 1.289.471.063 1.04.074 1.47-.105 5.435-2.015 9.2-6.168 12.694-10.667Zm-28.69 9.907c.758-.127 1.315-.185 1.895-.318 2.032-.555 2.206-2.469 2.375-3.991.112-1.441-1.16-2.685-2.498-3.065-1.747-.488-1.956 1.431-2.672 2.441-.458.645-.709 1.47-1 2.266-.285.83-1.088 1.747-.495 2.536.645.887 1.718.103 2.395.131Zm155.968-39.729c-1.696 1.707-2.634 3.714-3.532 5.75-.457 1.072-.586 2.409.443 3.268.789.685 1.626-.025 2.205-.584.911-.9 2.966-1.103 2.285-3.051-.607-1.712-1.11-3.44-1.401-5.383Z" fill="#FD7306"/></g></symbol><symbol id="smile_happy" viewBox="0 0 48 48"><g fill="none"><circle cx="24.392" cy="24.392" r="23.608" fill="#92C63B"/><path d="M36.108 17.784a3.237 3.237 0 0 1-3.24 3.229c-1.756 0-3.239-1.468-3.239-3.229 0-1.8 1.473-3.228 3.24-3.228 1.806.01 3.239 1.428 3.239 3.228ZM18.978 18.544a3.228 3.228 0 0 0-2.395-3.892 3.24 3.24 0 0 0-3.905 2.388 3.228 3.228 0 0 0 2.396 3.892 3.24 3.24 0 0 0 3.904-2.388Z" fill="#fff"/><path fill-rule="evenodd" clip-rule="evenodd" d="M35.72 30.87a1.835 1.835 0 0 0-1.495-.567c0-.003.002-.006.004-.009H14.556l.003.007a1.841 1.841 0 0 0-1.496.57 1.747 1.747 0 0 0 .117 2.508c6.139 5.505 16.295 5.505 22.433 0 .733-.66.782-1.78.108-2.508Z" fill="#fff"/></g></symbol><symbol id="smile_sad" viewBox="0 0 48 48"><g fill="none"><circle cx="24.054" cy="24.392" r="23.608" fill="#F8931F"/><path d="M14.072 36.353a1.816 1.816 0 0 1-1.237-3.15c6.165-5.626 16.363-5.626 22.527 0 .746.674.795 1.819.118 2.563a1.83 1.83 0 0 1-2.572.117c-4.83-4.403-12.8-4.403-17.619 0-.333.313-.775.47-1.217.47ZM35.77 17.784a3.237 3.237 0 0 1-3.24 3.229c-1.757 0-3.239-1.468-3.239-3.229 0-1.8 1.472-3.228 3.239-3.228 1.806.01 3.24 1.428 3.24 3.228ZM18.64 18.544a3.228 3.228 0 0 0-2.395-3.892 3.24 3.24 0 0 0-3.905 2.388 3.228 3.228 0 0 0 2.395 3.892 3.24 3.24 0 0 0 3.905-2.388Z" fill="#fff"/></g></symbol><symbol id="smile_smiling" viewBox="0 0 48 48"><g fill="none"><circle cx="23.946" cy="24.392" r="23.608" fill="#9ED970"/><path d="M34.026 30.296a1.816 1.816 0 0 1 1.237 3.15c-6.164 5.626-16.362 5.626-22.526 0a1.807 1.807 0 0 1-.118-2.563 1.83 1.83 0 0 1 2.572-.117c4.829 4.402 12.799 4.402 17.618 0 .334-.314.776-.47 1.217-.47ZM35.6 17.791a3.237 3.237 0 0 1-3.24 3.229c-1.756 0-3.238-1.468-3.238-3.229 0-1.8 1.472-3.229 3.239-3.229 1.806.01 3.239 1.429 3.239 3.23ZM19.197 18.544a3.228 3.228 0 0 0-2.395-3.892 3.24 3.24 0 0 0-3.905 2.388 3.228 3.228 0 0 0 2.395 3.892 3.24 3.24 0 0 0 3.905-2.388Z" fill="#fff"/></g></symbol><symbol id="smile_uncertain" viewBox="0 0 49 48"><g fill="none"><circle cx="24.5" cy="24.392" r="23.608" fill="#F9D600"/><path d="M36.215 17.784a3.237 3.237 0 0 1-3.239 3.229c-1.757 0-3.239-1.468-3.239-3.229 0-1.8 1.472-3.228 3.24-3.228 1.805.01 3.238 1.428 3.238 3.228ZM19.086 18.544a3.228 3.228 0 0 0-2.395-3.892 3.24 3.24 0 0 0-3.905 2.388 3.228 3.228 0 0 0 2.395 3.892 3.24 3.24 0 0 0 3.905-2.388ZM35.405 32.8c0 .997-.667 1.8-1.521 1.8H15.529c-.805 0-1.521-.803-1.521-1.8 0-.999.716-1.85 1.521-1.85h18.365c.854 0 1.511.851 1.511 1.85Z" fill="#fff"/></g></symbol><symbol id="smile_upset" viewBox="0 0 48 48"><g fill="none"><circle cx="23.608" cy="24.392" r="23.608" fill="#FF3334"/><path d="M35.261 17.791a3.237 3.237 0 0 1-3.239 3.229c-1.757 0-3.239-1.468-3.239-3.229 0-1.8 1.472-3.229 3.239-3.229 1.806.01 3.24 1.429 3.24 3.23ZM18.859 18.544a3.228 3.228 0 0 0-2.396-3.892 3.24 3.24 0 0 0-3.905 2.388 3.228 3.228 0 0 0 2.396 3.892 3.24 3.24 0 0 0 3.905-2.388Z" fill="#fff"/><path fill-rule="evenodd" clip-rule="evenodd" d="M12.28 35.62a1.835 1.835 0 0 0 1.495.568l-.004.008h19.673l-.003-.006c.543.045 1.1-.149 1.496-.57a1.747 1.747 0 0 0-.117-2.508c-6.139-5.505-16.295-5.505-22.433 0a1.755 1.755 0 0 0-.107 2.508Z" fill="#fff"/></g></symbol><symbol id="twitter" viewBox="0 0 43 44"><g fill="none"><path fill-rule="evenodd" clip-rule="evenodd" d="M.813 6.875C.813 3.078 3.71 0 7.285 0h28.474c3.574 0 6.471 3.078 6.471 6.875v30.25c0 3.797-2.897 6.875-6.471 6.875H7.285C3.71 44 .813 40.922.813 37.125V6.875Zm28.604 8.938c.906-.138 1.682-.276 2.46-.688a6.18 6.18 0 0 1-2.201 2.337c.259 6.463-4.142 13.476-12.037 13.476-2.33 0-4.53-.825-6.472-2.063 2.2.275 4.53-.413 6.084-1.65-1.942 0-3.495-1.375-4.013-3.163.647.138 1.295 0 1.942-.137-1.942-.55-3.365-2.475-3.365-4.538.647.276 1.294.55 1.941.55-1.812-1.375-2.46-3.987-1.294-6.05 2.2 2.75 5.306 4.538 8.8 4.675-.646-2.75 1.425-5.5 4.143-5.5 1.165 0 2.33.55 3.106 1.376 1.035-.276 1.941-.55 2.718-1.1-.259 1.1-.906 1.925-1.812 2.475Z" fill="#B2D947"/></g></symbol></svg>